<svg width="326" height="288" viewBox="0 0 326 288" fill="none" xmlns="http://www.w3.org/2000/svg">
<mask id="mask0_14_644" style="mask-type:alpha" maskUnits="userSpaceOnUse" x="0" y="0" width="288" height="288">
<rect width="288" height="288" rx="25" fill="#000257"/>
</mask>
<g mask="url(#mask0_14_644)">
<rect x="1.25" y="1.25" width="285.5" height="285.5" rx="23.75" fill="#E9F0F6" stroke="white" stroke-width="2.5"/>
<line x1="35.25" y1="288" x2="35.25" y2="3.27835e-08" stroke="white" stroke-width="1.5"/>
<line x1="17.25" y1="288" x2="17.25" y2="3.27835e-08" stroke="white" stroke-width="1.5"/>
<line x1="53.25" y1="288" x2="53.25" y2="3.27835e-08" stroke="white" stroke-width="1.5"/>
<line x1="89.25" y1="288" x2="89.25" y2="3.27835e-08" stroke="white" stroke-width="1.5"/>
<line x1="125.25" y1="288" x2="125.25" y2="3.27835e-08" stroke="white" stroke-width="1.5"/>
<line x1="161.25" y1="288" x2="161.25" y2="3.27835e-08" stroke="white" stroke-width="1.5"/>
<line x1="197.25" y1="288" x2="197.25" y2="3.27835e-08" stroke="white" stroke-width="1.5"/>
<line x1="233.25" y1="288" x2="233.25" y2="3.27835e-08" stroke="white" stroke-width="1.5"/>
<line x1="269.25" y1="288" x2="269.25" y2="3.27835e-08" stroke="white" stroke-width="1.5"/>
<line x1="71.25" y1="288" x2="71.25" y2="3.27835e-08" stroke="white" stroke-width="1.5"/>
<line x1="107.25" y1="288" x2="107.25" y2="3.27835e-08" stroke="white" stroke-width="1.5"/>
<line x1="143.25" y1="288" x2="143.25" y2="3.27835e-08" stroke="white" stroke-width="1.5"/>
<line x1="179.25" y1="288" x2="179.25" y2="3.27835e-08" stroke="white" stroke-width="1.5"/>
<line x1="215.25" y1="288" x2="215.25" y2="3.27835e-08" stroke="white" stroke-width="1.5"/>
<line x1="251.25" y1="288" x2="251.25" y2="3.27835e-08" stroke="white" stroke-width="1.5"/>
<line y1="89.25" x2="288" y2="89.25" stroke="white" stroke-width="1.5"/>
<line y1="53.25" x2="288" y2="53.25" stroke="white" stroke-width="1.5"/>
<line y1="17.25" x2="288" y2="17.25" stroke="white" stroke-width="1.5"/>
<line y1="125.25" x2="288" y2="125.25" stroke="white" stroke-width="1.5"/>
<line y1="161.25" x2="288" y2="161.25" stroke="white" stroke-width="1.5"/>
<line y1="197.25" x2="288" y2="197.25" stroke="white" stroke-width="1.5"/>
<line y1="233.25" x2="288" y2="233.25" stroke="white" stroke-width="1.5"/>
<line y1="269.25" x2="288" y2="269.25" stroke="white" stroke-width="1.5"/>
</g>
<path d="M35.5 161V233.5H251.5V89.5H107.5L35.5 161Z" fill="#3FCD7D" fill-opacity="0.2" stroke="#3FCD7D" stroke-width="2.5"/>
<path opacity="0.2" d="M107.5 181C118.27 181 127 172.27 127 161.5C127 150.73 118.27 142 107.5 142C96.7304 142 88 150.73 88 161.5C88 172.27 96.7304 181 107.5 181Z" fill="#000257"/>
<path d="M107.5 169C111.642 169 115 165.642 115 161.5C115 157.358 111.642 154 107.5 154C103.358 154 99.9999 157.358 99.9999 161.5C99.9999 165.642 103.358 169 107.5 169Z" fill="#000257" stroke="white" stroke-width="2.5" stroke-miterlimit="10"/>
<rect x="144.75" y="18.75" width="180.5" height="34.5" rx="17.25" fill="#000257"/>
<path d="M162.042 38.076C162.114 38.76 162.366 39.306 162.798 39.714C163.242 40.11 163.806 40.308 164.49 40.308C165.114 40.308 165.624 40.158 166.02 39.858C166.416 39.546 166.728 39.15 166.956 38.67L168.648 39.642C168.18 40.542 167.616 41.202 166.956 41.622C166.296 42.042 165.462 42.252 164.454 42.252C163.83 42.252 163.242 42.138 162.69 41.91C162.138 41.682 161.652 41.364 161.232 40.956C160.812 40.536 160.476 40.038 160.224 39.462C159.984 38.886 159.864 38.244 159.864 37.536C159.864 36.828 159.984 36.186 160.224 35.61C160.476 35.034 160.812 34.542 161.232 34.134C161.664 33.714 162.162 33.39 162.726 33.162C163.302 32.934 163.914 32.82 164.562 32.82C165.198 32.82 165.78 32.934 166.308 33.162C166.848 33.378 167.31 33.684 167.694 34.08C168.078 34.476 168.378 34.95 168.594 35.502C168.81 36.042 168.918 36.636 168.918 37.284V38.076H162.042ZM164.49 34.548C163.878 34.548 163.356 34.728 162.924 35.088C162.504 35.448 162.21 35.892 162.042 36.42H166.83C166.722 35.844 166.464 35.388 166.056 35.052C165.66 34.716 165.138 34.548 164.49 34.548ZM179.476 42H177.208V36.852C177.208 36.24 177.076 35.772 176.812 35.448C176.548 35.112 176.11 34.944 175.498 34.944C174.898 34.944 174.412 35.178 174.04 35.646C173.68 36.102 173.5 36.708 173.5 37.464V42H171.232V33.072H173.5V34.512C173.836 33.996 174.238 33.588 174.706 33.288C175.186 32.976 175.75 32.82 176.398 32.82C177.358 32.82 178.108 33.102 178.648 33.666C179.2 34.23 179.476 34.98 179.476 35.916V42ZM181.844 33.072H183.968V30.66H186.236V33.072H189.134V34.908H186.236V38.634C186.236 38.97 186.272 39.246 186.344 39.462C186.416 39.666 186.512 39.828 186.632 39.948C186.764 40.056 186.908 40.134 187.064 40.182C187.22 40.218 187.388 40.236 187.568 40.236C187.82 40.236 188.054 40.188 188.27 40.092C188.486 39.984 188.696 39.834 188.9 39.642L189.764 41.316C189.392 41.652 188.99 41.892 188.558 42.036C188.126 42.18 187.67 42.252 187.19 42.252C186.722 42.252 186.29 42.18 185.894 42.036C185.498 41.892 185.156 41.676 184.868 41.388C184.592 41.1 184.37 40.74 184.202 40.308C184.046 39.864 183.968 39.354 183.968 38.778V34.908H181.844V33.072ZM194.526 38.076C194.598 38.76 194.85 39.306 195.282 39.714C195.726 40.11 196.29 40.308 196.974 40.308C197.598 40.308 198.108 40.158 198.504 39.858C198.9 39.546 199.212 39.15 199.44 38.67L201.132 39.642C200.664 40.542 200.1 41.202 199.44 41.622C198.78 42.042 197.946 42.252 196.938 42.252C196.314 42.252 195.726 42.138 195.174 41.91C194.622 41.682 194.136 41.364 193.716 40.956C193.296 40.536 192.96 40.038 192.708 39.462C192.468 38.886 192.348 38.244 192.348 37.536C192.348 36.828 192.468 36.186 192.708 35.61C192.96 35.034 193.296 34.542 193.716 34.134C194.148 33.714 194.646 33.39 195.21 33.162C195.786 32.934 196.398 32.82 197.046 32.82C197.682 32.82 198.264 32.934 198.792 33.162C199.332 33.378 199.794 33.684 200.178 34.08C200.562 34.476 200.862 34.95 201.078 35.502C201.294 36.042 201.402 36.636 201.402 37.284V38.076H194.526ZM196.974 34.548C196.362 34.548 195.84 34.728 195.408 35.088C194.988 35.448 194.694 35.892 194.526 36.42H199.314C199.206 35.844 198.948 35.388 198.54 35.052C198.144 34.716 197.622 34.548 196.974 34.548ZM209.567 36.186C209.579 36.126 209.585 36.078 209.585 36.042C209.585 36.006 209.585 35.97 209.585 35.934C209.585 35.586 209.459 35.31 209.207 35.106C208.967 34.902 208.655 34.8 208.271 34.8C207.611 34.8 207.107 35.034 206.759 35.502C206.423 35.97 206.255 36.6 206.255 37.392V42H203.987V33.072H206.255V34.296C206.531 33.852 206.903 33.498 207.371 33.234C207.839 32.958 208.379 32.82 208.991 32.82C209.519 32.82 209.969 32.898 210.341 33.054C210.713 33.198 211.013 33.396 211.241 33.648C211.469 33.9 211.631 34.188 211.727 34.512C211.835 34.824 211.889 35.148 211.889 35.484C211.889 35.772 211.859 36.036 211.799 36.276C211.751 36.516 211.679 36.732 211.583 36.924L209.567 36.186ZM216.183 38.076C216.255 38.76 216.507 39.306 216.939 39.714C217.383 40.11 217.947 40.308 218.631 40.308C219.255 40.308 219.765 40.158 220.161 39.858C220.557 39.546 220.869 39.15 221.097 38.67L222.789 39.642C222.321 40.542 221.757 41.202 221.097 41.622C220.437 42.042 219.603 42.252 218.595 42.252C217.971 42.252 217.383 42.138 216.831 41.91C216.279 41.682 215.793 41.364 215.373 40.956C214.953 40.536 214.617 40.038 214.365 39.462C214.125 38.886 214.005 38.244 214.005 37.536C214.005 36.828 214.125 36.186 214.365 35.61C214.617 35.034 214.953 34.542 215.373 34.134C215.805 33.714 216.303 33.39 216.867 33.162C217.443 32.934 218.055 32.82 218.703 32.82C219.339 32.82 219.921 32.934 220.449 33.162C220.989 33.378 221.451 33.684 221.835 34.08C222.219 34.476 222.519 34.95 222.735 35.502C222.951 36.042 223.059 36.636 223.059 37.284V38.076H216.183ZM218.631 34.548C218.019 34.548 217.497 34.728 217.065 35.088C216.645 35.448 216.351 35.892 216.183 36.42H220.971C220.863 35.844 220.605 35.388 220.197 35.052C219.801 34.716 219.279 34.548 218.631 34.548ZM233.905 42H231.637V40.902C231.325 41.31 230.965 41.64 230.557 41.892C230.149 42.132 229.591 42.252 228.883 42.252C228.295 42.252 227.749 42.15 227.245 41.946C226.741 41.73 226.303 41.418 225.931 41.01C225.559 40.602 225.265 40.11 225.049 39.534C224.833 38.946 224.725 38.28 224.725 37.536C224.725 36.792 224.833 36.132 225.049 35.556C225.265 34.968 225.559 34.47 225.931 34.062C226.315 33.654 226.759 33.348 227.263 33.144C227.779 32.928 228.337 32.82 228.937 32.82C230.101 32.82 231.001 33.234 231.637 34.062V29.4H233.905V42ZM229.405 40.128C230.137 40.128 230.713 39.888 231.133 39.408C231.565 38.916 231.781 38.292 231.781 37.536C231.781 36.78 231.565 36.162 231.133 35.682C230.713 35.19 230.137 34.944 229.405 34.944C228.673 34.944 228.091 35.19 227.659 35.682C227.239 36.162 227.029 36.78 227.029 37.536C227.029 38.292 227.239 38.916 227.659 39.408C228.091 39.888 228.673 40.128 229.405 40.128ZM236.093 42.126H244.337V43.962H236.093V42.126ZM252.879 36.186C252.891 36.126 252.897 36.078 252.897 36.042C252.897 36.006 252.897 35.97 252.897 35.934C252.897 35.586 252.771 35.31 252.519 35.106C252.279 34.902 251.967 34.8 251.583 34.8C250.923 34.8 250.419 35.034 250.071 35.502C249.735 35.97 249.567 36.6 249.567 37.392V42H247.299V33.072H249.567V34.296C249.843 33.852 250.215 33.498 250.683 33.234C251.151 32.958 251.691 32.82 252.303 32.82C252.831 32.82 253.281 32.898 253.653 33.054C254.025 33.198 254.325 33.396 254.553 33.648C254.781 33.9 254.943 34.188 255.039 34.512C255.147 34.824 255.201 35.148 255.201 35.484C255.201 35.772 255.171 36.036 255.111 36.276C255.063 36.516 254.991 36.732 254.895 36.924L252.879 36.186ZM259.495 38.076C259.567 38.76 259.819 39.306 260.251 39.714C260.695 40.11 261.259 40.308 261.943 40.308C262.567 40.308 263.077 40.158 263.473 39.858C263.869 39.546 264.181 39.15 264.409 38.67L266.101 39.642C265.633 40.542 265.069 41.202 264.409 41.622C263.749 42.042 262.915 42.252 261.907 42.252C261.283 42.252 260.695 42.138 260.143 41.91C259.591 41.682 259.105 41.364 258.685 40.956C258.265 40.536 257.929 40.038 257.677 39.462C257.437 38.886 257.317 38.244 257.317 37.536C257.317 36.828 257.437 36.186 257.677 35.61C257.929 35.034 258.265 34.542 258.685 34.134C259.117 33.714 259.615 33.39 260.179 33.162C260.755 32.934 261.367 32.82 262.015 32.82C262.651 32.82 263.233 32.934 263.761 33.162C264.301 33.378 264.763 33.684 265.147 34.08C265.531 34.476 265.831 34.95 266.047 35.502C266.263 36.042 266.371 36.636 266.371 37.284V38.076H259.495ZM261.943 34.548C261.331 34.548 260.809 34.728 260.377 35.088C259.957 35.448 259.663 35.892 259.495 36.42H264.283C264.175 35.844 263.917 35.388 263.509 35.052C263.113 34.716 262.591 34.548 261.943 34.548ZM271.025 42.612C270.989 42.708 270.959 42.792 270.935 42.864C270.923 42.948 270.917 43.044 270.917 43.152C270.917 43.428 271.073 43.656 271.385 43.836C271.697 44.028 272.177 44.124 272.825 44.124C273.509 44.124 274.043 43.92 274.427 43.512C274.823 43.116 275.021 42.504 275.021 41.676V40.524C274.793 40.896 274.469 41.214 274.049 41.478C273.641 41.73 273.119 41.856 272.483 41.856C271.895 41.856 271.337 41.748 270.809 41.532C270.293 41.304 269.837 40.992 269.441 40.596C269.057 40.2 268.751 39.726 268.523 39.174C268.295 38.622 268.181 38.01 268.181 37.338C268.181 36.678 268.295 36.072 268.523 35.52C268.763 34.956 269.081 34.476 269.477 34.08C269.873 33.684 270.329 33.378 270.845 33.162C271.373 32.934 271.925 32.82 272.501 32.82C273.629 32.82 274.469 33.228 275.021 34.044V33.072H277.289V41.388C277.289 42.144 277.181 42.804 276.965 43.368C276.749 43.944 276.443 44.418 276.047 44.79C275.651 45.174 275.171 45.456 274.607 45.636C274.055 45.828 273.437 45.924 272.753 45.924C271.445 45.924 270.419 45.672 269.675 45.168C268.943 44.664 268.577 43.944 268.577 43.008C268.577 42.792 268.601 42.588 268.649 42.396C268.709 42.204 268.769 42.054 268.829 41.946L271.025 42.612ZM272.735 34.8C272.423 34.8 272.123 34.854 271.835 34.962C271.547 35.07 271.295 35.232 271.079 35.448C270.863 35.664 270.689 35.934 270.557 36.258C270.437 36.57 270.377 36.93 270.377 37.338C270.377 37.746 270.437 38.112 270.557 38.436C270.689 38.748 270.863 39.012 271.079 39.228C271.295 39.444 271.547 39.606 271.835 39.714C272.123 39.822 272.423 39.876 272.735 39.876C273.047 39.876 273.347 39.822 273.635 39.714C273.935 39.606 274.193 39.444 274.409 39.228C274.637 39.012 274.817 38.748 274.949 38.436C275.081 38.112 275.147 37.746 275.147 37.338C275.147 36.93 275.081 36.57 274.949 36.258C274.817 35.934 274.637 35.664 274.409 35.448C274.193 35.232 273.935 35.07 273.635 34.962C273.347 34.854 273.047 34.8 272.735 34.8ZM279.981 33.072H284.661V40.128H287.523V42H279.531V40.128H282.393V34.908H279.981V33.072ZM282.285 29.4H284.769V31.776H282.285V29.4ZM299.126 37.536C299.126 38.316 298.988 39 298.712 39.588C298.448 40.176 298.094 40.668 297.65 41.064C297.218 41.46 296.714 41.76 296.138 41.964C295.562 42.156 294.968 42.252 294.356 42.252C293.744 42.252 293.15 42.156 292.574 41.964C291.998 41.76 291.488 41.46 291.044 41.064C290.612 40.668 290.258 40.176 289.982 39.588C289.718 39 289.586 38.316 289.586 37.536C289.586 36.756 289.718 36.072 289.982 35.484C290.258 34.896 290.612 34.404 291.044 34.008C291.488 33.612 291.998 33.318 292.574 33.126C293.15 32.922 293.744 32.82 294.356 32.82C294.968 32.82 295.562 32.922 296.138 33.126C296.714 33.318 297.218 33.612 297.65 34.008C298.094 34.404 298.448 34.896 298.712 35.484C298.988 36.072 299.126 36.756 299.126 37.536ZM294.356 40.128C294.704 40.128 295.028 40.074 295.328 39.966C295.628 39.858 295.886 39.696 296.102 39.48C296.33 39.264 296.504 38.994 296.624 38.67C296.756 38.346 296.822 37.968 296.822 37.536C296.822 37.104 296.756 36.726 296.624 36.402C296.504 36.078 296.33 35.808 296.102 35.592C295.886 35.376 295.628 35.214 295.328 35.106C295.028 34.998 294.704 34.944 294.356 34.944C294.008 34.944 293.684 34.998 293.384 35.106C293.084 35.214 292.82 35.376 292.592 35.592C292.376 35.808 292.202 36.078 292.07 36.402C291.95 36.726 291.89 37.104 291.89 37.536C291.89 37.968 291.95 38.346 292.07 38.67C292.202 38.994 292.376 39.264 292.592 39.48C292.82 39.696 293.084 39.858 293.384 39.966C293.684 40.074 294.008 40.128 294.356 40.128ZM309.414 42H307.146V36.852C307.146 36.24 307.014 35.772 306.75 35.448C306.486 35.112 306.048 34.944 305.436 34.944C304.836 34.944 304.35 35.178 303.978 35.646C303.618 36.102 303.438 36.708 303.438 37.464V42H301.17V33.072H303.438V34.512C303.774 33.996 304.176 33.588 304.644 33.288C305.124 32.976 305.688 32.82 306.336 32.82C307.296 32.82 308.046 33.102 308.586 33.666C309.138 34.23 309.414 34.98 309.414 35.916V42Z" fill="white"/>
<rect x="144.75" y="18.75" width="180.5" height="34.5" rx="17.25" stroke="#ACBDC8" stroke-width="1.5"/>
<path d="M36 216C45.9411 216 54 207.941 54 198C54 188.059 45.9411 180 36 180C26.0589 180 18 188.059 18 198C18 207.941 26.0589 216 36 216Z" fill="#3FCC7D"/>
<path fill-rule="evenodd" clip-rule="evenodd" d="M42.7326 198.017C42.7326 194.33 39.7252 191.323 36.0379 191.323C34.7954 191.323 33.6302 191.664 32.6311 192.258L32.9275 192.497L32.9893 192.558L34.1119 193.753C34.2561 193.908 34.3282 194.124 34.2973 194.34L34.0192 196.204C33.9883 196.441 33.8441 196.637 33.6382 196.74L31.949 197.595L31.537 197.945L31.6503 198.131L32.4846 199.027C32.567 199.109 32.6185 199.202 32.6494 199.315L33.1335 200.994C33.2159 201.262 33.1232 201.55 32.9069 201.735L31.7533 202.704L31.6644 203.079C32.3722 203.692 33.2091 204.159 34.1277 204.434C34.1591 204.318 34.2093 204.212 34.287 204.125L35.5745 202.724L36.213 200.963C36.2748 200.767 36.4293 200.613 36.625 200.541L38.8394 199.706C38.963 199.665 39.0969 199.645 39.2308 199.675L41.3731 200.108C41.507 200.129 41.6306 200.201 41.7336 200.293L42.1636 200.714C42.5293 199.889 42.7326 198.976 42.7326 198.017ZM30.2179 192.183C28.7198 193.666 27.788 195.721 27.7777 197.997C27.7571 202.549 31.4237 206.257 35.9762 206.277C38.2866 206.288 40.3795 205.349 41.8832 203.826C43.3633 202.336 44.2776 200.284 44.2776 198.017C44.2776 193.465 40.5903 189.778 36.0379 189.778C33.7653 189.778 31.7082 190.697 30.2179 192.183Z" fill="white"/>
</svg>
