<svg width="326" height="288" viewBox="0 0 326 288" fill="none" xmlns="http://www.w3.org/2000/svg">
<mask id="mask0_14_648" style="mask-type:alpha" maskUnits="userSpaceOnUse" x="0" y="0" width="288" height="288">
<rect width="288" height="288" rx="25" fill="#000257"/>
</mask>
<g mask="url(#mask0_14_648)">
<rect x="1.25" y="1.25" width="285.5" height="285.5" rx="23.75" fill="#E9F0F6" stroke="white" stroke-width="2.5"/>
<line x1="35.25" y1="288" x2="35.25" y2="3.27835e-08" stroke="white" stroke-width="1.5"/>
<line x1="71.25" y1="288" x2="71.25" y2="3.27835e-08" stroke="white" stroke-width="1.5"/>
<line x1="107.25" y1="288" x2="107.25" y2="3.27835e-08" stroke="white" stroke-width="1.5"/>
<line x1="143.25" y1="288" x2="143.25" y2="3.27835e-08" stroke="white" stroke-width="1.5"/>
<line x1="179.25" y1="288" x2="179.25" y2="3.27835e-08" stroke="white" stroke-width="1.5"/>
<line x1="215.25" y1="288" x2="215.25" y2="3.27835e-08" stroke="white" stroke-width="1.5"/>
<line x1="251.25" y1="288" x2="251.25" y2="3.27835e-08" stroke="white" stroke-width="1.5"/>
<line y1="98.25" x2="288" y2="98.25" stroke="white" stroke-width="1.5"/>
<line y1="35.25" x2="288" y2="35.25" stroke="white" stroke-width="1.5"/>
<line y1="170.25" x2="288" y2="170.25" stroke="white" stroke-width="1.5"/>
<line y1="242.25" x2="288" y2="242.25" stroke="white" stroke-width="1.5"/>
</g>
<path opacity="0.2" d="M179.5 190C190.27 190 199 181.27 199 170.5C199 159.73 190.27 151 179.5 151C168.73 151 160 159.73 160 170.5C160 181.27 168.73 190 179.5 190Z" fill="#000257"/>
<path d="M179.5 178C183.642 178 187 174.642 187 170.5C187 166.358 183.642 163 179.5 163C175.358 163 172 166.358 172 170.5C172 174.642 175.358 178 179.5 178Z" fill="#000257" stroke="white" stroke-width="2.5" stroke-miterlimit="10"/>
<rect x="144.75" y="18.75" width="180.5" height="34.5" rx="17.25" fill="#000257"/>
<path d="M162.042 38.076C162.114 38.76 162.366 39.306 162.798 39.714C163.242 40.11 163.806 40.308 164.49 40.308C165.114 40.308 165.624 40.158 166.02 39.858C166.416 39.546 166.728 39.15 166.956 38.67L168.648 39.642C168.18 40.542 167.616 41.202 166.956 41.622C166.296 42.042 165.462 42.252 164.454 42.252C163.83 42.252 163.242 42.138 162.69 41.91C162.138 41.682 161.652 41.364 161.232 40.956C160.812 40.536 160.476 40.038 160.224 39.462C159.984 38.886 159.864 38.244 159.864 37.536C159.864 36.828 159.984 36.186 160.224 35.61C160.476 35.034 160.812 34.542 161.232 34.134C161.664 33.714 162.162 33.39 162.726 33.162C163.302 32.934 163.914 32.82 164.562 32.82C165.198 32.82 165.78 32.934 166.308 33.162C166.848 33.378 167.31 33.684 167.694 34.08C168.078 34.476 168.378 34.95 168.594 35.502C168.81 36.042 168.918 36.636 168.918 37.284V38.076H162.042ZM164.49 34.548C163.878 34.548 163.356 34.728 162.924 35.088C162.504 35.448 162.21 35.892 162.042 36.42H166.83C166.722 35.844 166.464 35.388 166.056 35.052C165.66 34.716 165.138 34.548 164.49 34.548ZM179.476 42H177.208V36.852C177.208 36.24 177.076 35.772 176.812 35.448C176.548 35.112 176.11 34.944 175.498 34.944C174.898 34.944 174.412 35.178 174.04 35.646C173.68 36.102 173.5 36.708 173.5 37.464V42H171.232V33.072H173.5V34.512C173.836 33.996 174.238 33.588 174.706 33.288C175.186 32.976 175.75 32.82 176.398 32.82C177.358 32.82 178.108 33.102 178.648 33.666C179.2 34.23 179.476 34.98 179.476 35.916V42ZM181.844 33.072H183.968V30.66H186.236V33.072H189.134V34.908H186.236V38.634C186.236 38.97 186.272 39.246 186.344 39.462C186.416 39.666 186.512 39.828 186.632 39.948C186.764 40.056 186.908 40.134 187.064 40.182C187.22 40.218 187.388 40.236 187.568 40.236C187.82 40.236 188.054 40.188 188.27 40.092C188.486 39.984 188.696 39.834 188.9 39.642L189.764 41.316C189.392 41.652 188.99 41.892 188.558 42.036C188.126 42.18 187.67 42.252 187.19 42.252C186.722 42.252 186.29 42.18 185.894 42.036C185.498 41.892 185.156 41.676 184.868 41.388C184.592 41.1 184.37 40.74 184.202 40.308C184.046 39.864 183.968 39.354 183.968 38.778V34.908H181.844V33.072ZM194.526 38.076C194.598 38.76 194.85 39.306 195.282 39.714C195.726 40.11 196.29 40.308 196.974 40.308C197.598 40.308 198.108 40.158 198.504 39.858C198.9 39.546 199.212 39.15 199.44 38.67L201.132 39.642C200.664 40.542 200.1 41.202 199.44 41.622C198.78 42.042 197.946 42.252 196.938 42.252C196.314 42.252 195.726 42.138 195.174 41.91C194.622 41.682 194.136 41.364 193.716 40.956C193.296 40.536 192.96 40.038 192.708 39.462C192.468 38.886 192.348 38.244 192.348 37.536C192.348 36.828 192.468 36.186 192.708 35.61C192.96 35.034 193.296 34.542 193.716 34.134C194.148 33.714 194.646 33.39 195.21 33.162C195.786 32.934 196.398 32.82 197.046 32.82C197.682 32.82 198.264 32.934 198.792 33.162C199.332 33.378 199.794 33.684 200.178 34.08C200.562 34.476 200.862 34.95 201.078 35.502C201.294 36.042 201.402 36.636 201.402 37.284V38.076H194.526ZM196.974 34.548C196.362 34.548 195.84 34.728 195.408 35.088C194.988 35.448 194.694 35.892 194.526 36.42H199.314C199.206 35.844 198.948 35.388 198.54 35.052C198.144 34.716 197.622 34.548 196.974 34.548ZM209.567 36.186C209.579 36.126 209.585 36.078 209.585 36.042C209.585 36.006 209.585 35.97 209.585 35.934C209.585 35.586 209.459 35.31 209.207 35.106C208.967 34.902 208.655 34.8 208.271 34.8C207.611 34.8 207.107 35.034 206.759 35.502C206.423 35.97 206.255 36.6 206.255 37.392V42H203.987V33.072H206.255V34.296C206.531 33.852 206.903 33.498 207.371 33.234C207.839 32.958 208.379 32.82 208.991 32.82C209.519 32.82 209.969 32.898 210.341 33.054C210.713 33.198 211.013 33.396 211.241 33.648C211.469 33.9 211.631 34.188 211.727 34.512C211.835 34.824 211.889 35.148 211.889 35.484C211.889 35.772 211.859 36.036 211.799 36.276C211.751 36.516 211.679 36.732 211.583 36.924L209.567 36.186ZM216.183 38.076C216.255 38.76 216.507 39.306 216.939 39.714C217.383 40.11 217.947 40.308 218.631 40.308C219.255 40.308 219.765 40.158 220.161 39.858C220.557 39.546 220.869 39.15 221.097 38.67L222.789 39.642C222.321 40.542 221.757 41.202 221.097 41.622C220.437 42.042 219.603 42.252 218.595 42.252C217.971 42.252 217.383 42.138 216.831 41.91C216.279 41.682 215.793 41.364 215.373 40.956C214.953 40.536 214.617 40.038 214.365 39.462C214.125 38.886 214.005 38.244 214.005 37.536C214.005 36.828 214.125 36.186 214.365 35.61C214.617 35.034 214.953 34.542 215.373 34.134C215.805 33.714 216.303 33.39 216.867 33.162C217.443 32.934 218.055 32.82 218.703 32.82C219.339 32.82 219.921 32.934 220.449 33.162C220.989 33.378 221.451 33.684 221.835 34.08C222.219 34.476 222.519 34.95 222.735 35.502C222.951 36.042 223.059 36.636 223.059 37.284V38.076H216.183ZM218.631 34.548C218.019 34.548 217.497 34.728 217.065 35.088C216.645 35.448 216.351 35.892 216.183 36.42H220.971C220.863 35.844 220.605 35.388 220.197 35.052C219.801 34.716 219.279 34.548 218.631 34.548ZM233.905 42H231.637V40.902C231.325 41.31 230.965 41.64 230.557 41.892C230.149 42.132 229.591 42.252 228.883 42.252C228.295 42.252 227.749 42.15 227.245 41.946C226.741 41.73 226.303 41.418 225.931 41.01C225.559 40.602 225.265 40.11 225.049 39.534C224.833 38.946 224.725 38.28 224.725 37.536C224.725 36.792 224.833 36.132 225.049 35.556C225.265 34.968 225.559 34.47 225.931 34.062C226.315 33.654 226.759 33.348 227.263 33.144C227.779 32.928 228.337 32.82 228.937 32.82C230.101 32.82 231.001 33.234 231.637 34.062V29.4H233.905V42ZM229.405 40.128C230.137 40.128 230.713 39.888 231.133 39.408C231.565 38.916 231.781 38.292 231.781 37.536C231.781 36.78 231.565 36.162 231.133 35.682C230.713 35.19 230.137 34.944 229.405 34.944C228.673 34.944 228.091 35.19 227.659 35.682C227.239 36.162 227.029 36.78 227.029 37.536C227.029 38.292 227.239 38.916 227.659 39.408C228.091 39.888 228.673 40.128 229.405 40.128ZM236.093 42.126H244.337V43.962H236.093V42.126ZM246.489 29.4H248.757V34.17C249.117 33.738 249.525 33.408 249.981 33.18C250.449 32.94 250.983 32.82 251.583 32.82C252.183 32.82 252.735 32.928 253.239 33.144C253.755 33.348 254.193 33.654 254.553 34.062C254.925 34.47 255.213 34.968 255.417 35.556C255.633 36.132 255.741 36.792 255.741 37.536C255.741 38.28 255.633 38.946 255.417 39.534C255.201 40.11 254.901 40.602 254.517 41.01C254.145 41.418 253.701 41.73 253.185 41.946C252.681 42.15 252.135 42.252 251.547 42.252C250.839 42.252 250.257 42.126 249.801 41.874C249.345 41.61 248.997 41.286 248.757 40.902V42H246.489V29.4ZM251.025 40.128C251.757 40.128 252.339 39.888 252.771 39.408C253.215 38.916 253.437 38.292 253.437 37.536C253.437 36.78 253.215 36.162 252.771 35.682C252.339 35.19 251.757 34.944 251.025 34.944C250.293 34.944 249.705 35.19 249.261 35.682C248.829 36.162 248.613 36.78 248.613 37.536C248.613 38.292 248.829 38.916 249.261 39.408C249.705 39.888 250.293 40.128 251.025 40.128ZM259.495 38.076C259.567 38.76 259.819 39.306 260.251 39.714C260.695 40.11 261.259 40.308 261.943 40.308C262.567 40.308 263.077 40.158 263.473 39.858C263.869 39.546 264.181 39.15 264.409 38.67L266.101 39.642C265.633 40.542 265.069 41.202 264.409 41.622C263.749 42.042 262.915 42.252 261.907 42.252C261.283 42.252 260.695 42.138 260.143 41.91C259.591 41.682 259.105 41.364 258.685 40.956C258.265 40.536 257.929 40.038 257.677 39.462C257.437 38.886 257.317 38.244 257.317 37.536C257.317 36.828 257.437 36.186 257.677 35.61C257.929 35.034 258.265 34.542 258.685 34.134C259.117 33.714 259.615 33.39 260.179 33.162C260.755 32.934 261.367 32.82 262.015 32.82C262.651 32.82 263.233 32.934 263.761 33.162C264.301 33.378 264.763 33.684 265.147 34.08C265.531 34.476 265.831 34.95 266.047 35.502C266.263 36.042 266.371 36.636 266.371 37.284V38.076H259.495ZM261.943 34.548C261.331 34.548 260.809 34.728 260.377 35.088C259.957 35.448 259.663 35.892 259.495 36.42H264.283C264.175 35.844 263.917 35.388 263.509 35.052C263.113 34.716 262.591 34.548 261.943 34.548ZM274.931 42C274.859 41.904 274.769 41.742 274.661 41.514C274.553 41.274 274.499 40.962 274.499 40.578C274.151 41.178 273.719 41.61 273.203 41.874C272.687 42.126 272.105 42.252 271.457 42.252C271.013 42.252 270.605 42.186 270.233 42.054C269.861 41.922 269.537 41.736 269.261 41.496C268.985 41.256 268.769 40.962 268.613 40.614C268.457 40.266 268.379 39.882 268.379 39.462C268.379 39.006 268.463 38.61 268.631 38.274C268.799 37.938 269.027 37.65 269.315 37.41C269.603 37.17 269.939 36.978 270.323 36.834C270.707 36.69 271.121 36.582 271.565 36.51L274.373 36.096V35.754C274.373 35.322 274.223 34.992 273.923 34.764C273.635 34.524 273.215 34.404 272.663 34.404C272.135 34.404 271.727 34.506 271.439 34.71C271.151 34.902 271.007 35.136 271.007 35.412C271.007 35.448 271.007 35.478 271.007 35.502C271.007 35.526 271.019 35.568 271.043 35.628L269.009 36.312C268.901 36.084 268.847 35.832 268.847 35.556C268.847 35.208 268.931 34.872 269.099 34.548C269.267 34.212 269.513 33.918 269.837 33.666C270.161 33.414 270.557 33.21 271.025 33.054C271.505 32.898 272.051 32.82 272.663 32.82C273.923 32.82 274.901 33.09 275.597 33.63C276.293 34.158 276.641 34.968 276.641 36.06V39.786C276.641 40.302 276.683 40.722 276.767 41.046C276.863 41.37 277.019 41.688 277.235 42H274.931ZM271.979 40.416C272.291 40.416 272.591 40.362 272.879 40.254C273.167 40.146 273.419 39.984 273.635 39.768C273.863 39.552 274.043 39.282 274.175 38.958C274.307 38.634 274.373 38.256 274.373 37.824V37.662L272.141 38.022C271.649 38.106 271.265 38.256 270.989 38.472C270.725 38.688 270.593 38.976 270.593 39.336C270.593 39.696 270.725 39.966 270.989 40.146C271.253 40.326 271.583 40.416 271.979 40.416ZM288.099 39.606C287.655 40.434 287.079 41.082 286.371 41.55C285.675 42.018 284.835 42.252 283.851 42.252C283.191 42.252 282.573 42.144 281.997 41.928C281.421 41.7 280.917 41.382 280.485 40.974C280.053 40.554 279.711 40.056 279.459 39.48C279.219 38.892 279.099 38.244 279.099 37.536C279.099 36.828 279.225 36.186 279.477 35.61C279.741 35.022 280.089 34.524 280.521 34.116C280.953 33.696 281.457 33.378 282.033 33.162C282.609 32.934 283.215 32.82 283.851 32.82C284.847 32.82 285.687 33.024 286.371 33.432C287.067 33.84 287.625 34.476 288.045 35.34L286.119 36.474C285.855 35.898 285.525 35.502 285.129 35.286C284.733 35.058 284.301 34.944 283.833 34.944C283.497 34.944 283.179 35.004 282.879 35.124C282.591 35.244 282.333 35.418 282.105 35.646C281.889 35.874 281.715 36.15 281.583 36.474C281.463 36.786 281.403 37.14 281.403 37.536C281.403 37.932 281.463 38.292 281.583 38.616C281.715 38.94 281.889 39.216 282.105 39.444C282.321 39.66 282.573 39.828 282.861 39.948C283.161 40.068 283.485 40.128 283.833 40.128C284.433 40.128 284.913 39.99 285.273 39.714C285.633 39.438 285.951 39.03 286.227 38.49L288.099 39.606ZM299.126 37.536C299.126 38.316 298.988 39 298.712 39.588C298.448 40.176 298.094 40.668 297.65 41.064C297.218 41.46 296.714 41.76 296.138 41.964C295.562 42.156 294.968 42.252 294.356 42.252C293.744 42.252 293.15 42.156 292.574 41.964C291.998 41.76 291.488 41.46 291.044 41.064C290.612 40.668 290.258 40.176 289.982 39.588C289.718 39 289.586 38.316 289.586 37.536C289.586 36.756 289.718 36.072 289.982 35.484C290.258 34.896 290.612 34.404 291.044 34.008C291.488 33.612 291.998 33.318 292.574 33.126C293.15 32.922 293.744 32.82 294.356 32.82C294.968 32.82 295.562 32.922 296.138 33.126C296.714 33.318 297.218 33.612 297.65 34.008C298.094 34.404 298.448 34.896 298.712 35.484C298.988 36.072 299.126 36.756 299.126 37.536ZM294.356 40.128C294.704 40.128 295.028 40.074 295.328 39.966C295.628 39.858 295.886 39.696 296.102 39.48C296.33 39.264 296.504 38.994 296.624 38.67C296.756 38.346 296.822 37.968 296.822 37.536C296.822 37.104 296.756 36.726 296.624 36.402C296.504 36.078 296.33 35.808 296.102 35.592C295.886 35.376 295.628 35.214 295.328 35.106C295.028 34.998 294.704 34.944 294.356 34.944C294.008 34.944 293.684 34.998 293.384 35.106C293.084 35.214 292.82 35.376 292.592 35.592C292.376 35.808 292.202 36.078 292.07 36.402C291.95 36.726 291.89 37.104 291.89 37.536C291.89 37.968 291.95 38.346 292.07 38.67C292.202 38.994 292.376 39.264 292.592 39.48C292.82 39.696 293.084 39.858 293.384 39.966C293.684 40.074 294.008 40.128 294.356 40.128ZM309.414 42H307.146V36.852C307.146 36.24 307.014 35.772 306.75 35.448C306.486 35.112 306.048 34.944 305.436 34.944C304.836 34.944 304.35 35.178 303.978 35.646C303.618 36.102 303.438 36.708 303.438 37.464V42H301.17V33.072H303.438V34.512C303.774 33.996 304.176 33.588 304.644 33.288C305.124 32.976 305.688 32.82 306.336 32.82C307.296 32.82 308.046 33.102 308.586 33.666C309.138 34.23 309.414 34.98 309.414 35.916V42Z" fill="white"/>
<rect x="144.75" y="18.75" width="180.5" height="34.5" rx="17.25" stroke="#ACBDC8" stroke-width="1.5"/>
<path d="M72 189C81.9411 189 90 180.941 90 171C90 161.059 81.9411 153 72 153C62.0589 153 54 161.059 54 171C54 180.941 62.0589 189 72 189Z" fill="#0005FB"/>
<path d="M72.0133 179.249C71.8789 179.249 71.7444 179.225 71.6222 179.164C71.3044 179.017 71.0966 178.687 71.0966 178.333V172.491L67.9189 174.519C67.4911 174.788 66.9289 174.666 66.6477 174.238C66.3789 173.811 66.5011 173.248 66.9289 172.967L70.7666 170.523L66.9289 168.103C66.5011 167.834 66.3666 167.272 66.6477 166.844C66.9166 166.416 67.4789 166.294 67.9189 166.563L71.1089 168.579V163.666C71.1089 163.324 71.2922 163.018 71.5977 162.859C71.9033 162.701 72.2577 162.713 72.5389 162.908L78.0266 166.551C78.2833 166.722 78.4422 167.015 78.43 167.321C78.4177 167.626 78.2711 167.919 78.0022 168.091L74.1889 170.523L78.0022 172.943C78.2466 173.102 78.4055 173.358 78.43 173.652C78.4544 173.945 78.3322 174.226 78.1 174.409L72.6122 179.029C72.4411 179.176 72.2333 179.249 72.0255 179.249H72.0133ZM72.93 171.904V176.365L75.9611 173.823L72.93 171.904ZM72.93 165.377V169.142L75.8266 167.296L72.93 165.377Z" fill="white"/>
<path d="M215 119C224.941 119 233 110.941 233 101C233 91.0589 224.941 83 215 83C205.059 83 197 91.0589 197 101C197 110.941 205.059 119 215 119Z" fill="#0005FB"/>
<path d="M215.013 109.249C214.879 109.249 214.744 109.225 214.622 109.164C214.304 109.017 214.097 108.687 214.097 108.333V102.491L210.919 104.519C210.491 104.788 209.929 104.666 209.648 104.238C209.379 103.811 209.501 103.248 209.929 102.967L213.767 100.523L209.929 98.1028C209.501 97.8339 209.367 97.2717 209.648 96.8439C209.917 96.4161 210.479 96.2939 210.919 96.5628L214.109 98.5795V93.6661C214.109 93.3239 214.292 93.0183 214.598 92.8595C214.903 92.7006 215.258 92.7128 215.539 92.9083L221.027 96.5506C221.283 96.7217 221.442 97.015 221.43 97.3206C221.418 97.6261 221.271 97.9195 221.002 98.0906L217.189 100.523L221.002 102.943C221.247 103.102 221.406 103.358 221.43 103.652C221.454 103.945 221.332 104.226 221.1 104.409L215.612 109.029C215.441 109.176 215.233 109.249 215.026 109.249H215.013ZM215.93 101.904V106.365L218.961 103.823L215.93 101.904ZM215.93 95.3772V99.1417L218.827 97.2961L215.93 95.3772Z" fill="white"/>
</svg>
