<svg width="315" height="288" viewBox="0 0 315 288" fill="none" xmlns="http://www.w3.org/2000/svg">
<mask id="mask0_14_642" style="mask-type:alpha" maskUnits="userSpaceOnUse" x="0" y="0" width="288" height="288">
<rect width="288" height="288" rx="25" fill="#000257"/>
</mask>
<g mask="url(#mask0_14_642)">
<rect x="1.25" y="1.25" width="285.5" height="285.5" rx="23.75" fill="#E9F0F6" stroke="white" stroke-width="2.5"/>
<line x1="35.25" y1="288" x2="35.25" y2="3.27835e-08" stroke="white" stroke-width="1.5"/>
<line x1="71.25" y1="288" x2="71.25" y2="3.27835e-08" stroke="white" stroke-width="1.5"/>
<line x1="107.25" y1="288" x2="107.25" y2="3.27835e-08" stroke="white" stroke-width="1.5"/>
<line x1="143.25" y1="288" x2="143.25" y2="3.27835e-08" stroke="white" stroke-width="1.5"/>
<line x1="179.25" y1="288" x2="179.25" y2="3.27835e-08" stroke="white" stroke-width="1.5"/>
<line x1="215.25" y1="288" x2="215.25" y2="3.27835e-08" stroke="white" stroke-width="1.5"/>
<line x1="251.25" y1="288" x2="251.25" y2="3.27835e-08" stroke="white" stroke-width="1.5"/>
<line y1="98.25" x2="288" y2="98.25" stroke="white" stroke-width="1.5"/>
<line y1="35.25" x2="288" y2="35.25" stroke="white" stroke-width="1.5"/>
<line y1="170.25" x2="288" y2="170.25" stroke="white" stroke-width="1.5"/>
<line y1="242.25" x2="288" y2="242.25" stroke="white" stroke-width="1.5"/>
</g>
<path d="M108 225V171H72V198H54V225H108Z" fill="#5B38FF" fill-opacity="0.2" stroke="#5B38FF" stroke-width="2.5" stroke-miterlimit="10"/>
<path d="M180 99V171H198L216 153V99H180Z" fill="#5B38FF" fill-opacity="0.2" stroke="#5B38FF" stroke-width="2.5" stroke-miterlimit="10"/>
<path opacity="0.2" d="M179.5 118C190.27 118 199 109.27 199 98.5C199 87.7304 190.27 79 179.5 79C168.73 79 160 87.7304 160 98.5C160 109.27 168.73 118 179.5 118Z" fill="#000257"/>
<path d="M179.5 106C183.642 106 187 102.642 187 98.5C187 94.3579 183.642 91 179.5 91C175.358 91 172 94.3579 172 98.5C172 102.642 175.358 106 179.5 106Z" fill="#000257" stroke="white" stroke-width="2.5" stroke-miterlimit="10"/>
<rect x="144.75" y="18.75" width="169.5" height="34.5" rx="17.25" fill="#000257"/>
<path d="M162.042 38.076C162.114 38.76 162.366 39.306 162.798 39.714C163.242 40.11 163.806 40.308 164.49 40.308C165.114 40.308 165.624 40.158 166.02 39.858C166.416 39.546 166.728 39.15 166.956 38.67L168.648 39.642C168.18 40.542 167.616 41.202 166.956 41.622C166.296 42.042 165.462 42.252 164.454 42.252C163.83 42.252 163.242 42.138 162.69 41.91C162.138 41.682 161.652 41.364 161.232 40.956C160.812 40.536 160.476 40.038 160.224 39.462C159.984 38.886 159.864 38.244 159.864 37.536C159.864 36.828 159.984 36.186 160.224 35.61C160.476 35.034 160.812 34.542 161.232 34.134C161.664 33.714 162.162 33.39 162.726 33.162C163.302 32.934 163.914 32.82 164.562 32.82C165.198 32.82 165.78 32.934 166.308 33.162C166.848 33.378 167.31 33.684 167.694 34.08C168.078 34.476 168.378 34.95 168.594 35.502C168.81 36.042 168.918 36.636 168.918 37.284V38.076H162.042ZM164.49 34.548C163.878 34.548 163.356 34.728 162.924 35.088C162.504 35.448 162.21 35.892 162.042 36.42H166.83C166.722 35.844 166.464 35.388 166.056 35.052C165.66 34.716 165.138 34.548 164.49 34.548ZM179.476 42H177.208V36.852C177.208 36.24 177.076 35.772 176.812 35.448C176.548 35.112 176.11 34.944 175.498 34.944C174.898 34.944 174.412 35.178 174.04 35.646C173.68 36.102 173.5 36.708 173.5 37.464V42H171.232V33.072H173.5V34.512C173.836 33.996 174.238 33.588 174.706 33.288C175.186 32.976 175.75 32.82 176.398 32.82C177.358 32.82 178.108 33.102 178.648 33.666C179.2 34.23 179.476 34.98 179.476 35.916V42ZM181.844 33.072H183.968V30.66H186.236V33.072H189.134V34.908H186.236V38.634C186.236 38.97 186.272 39.246 186.344 39.462C186.416 39.666 186.512 39.828 186.632 39.948C186.764 40.056 186.908 40.134 187.064 40.182C187.22 40.218 187.388 40.236 187.568 40.236C187.82 40.236 188.054 40.188 188.27 40.092C188.486 39.984 188.696 39.834 188.9 39.642L189.764 41.316C189.392 41.652 188.99 41.892 188.558 42.036C188.126 42.18 187.67 42.252 187.19 42.252C186.722 42.252 186.29 42.18 185.894 42.036C185.498 41.892 185.156 41.676 184.868 41.388C184.592 41.1 184.37 40.74 184.202 40.308C184.046 39.864 183.968 39.354 183.968 38.778V34.908H181.844V33.072ZM194.526 38.076C194.598 38.76 194.85 39.306 195.282 39.714C195.726 40.11 196.29 40.308 196.974 40.308C197.598 40.308 198.108 40.158 198.504 39.858C198.9 39.546 199.212 39.15 199.44 38.67L201.132 39.642C200.664 40.542 200.1 41.202 199.44 41.622C198.78 42.042 197.946 42.252 196.938 42.252C196.314 42.252 195.726 42.138 195.174 41.91C194.622 41.682 194.136 41.364 193.716 40.956C193.296 40.536 192.96 40.038 192.708 39.462C192.468 38.886 192.348 38.244 192.348 37.536C192.348 36.828 192.468 36.186 192.708 35.61C192.96 35.034 193.296 34.542 193.716 34.134C194.148 33.714 194.646 33.39 195.21 33.162C195.786 32.934 196.398 32.82 197.046 32.82C197.682 32.82 198.264 32.934 198.792 33.162C199.332 33.378 199.794 33.684 200.178 34.08C200.562 34.476 200.862 34.95 201.078 35.502C201.294 36.042 201.402 36.636 201.402 37.284V38.076H194.526ZM196.974 34.548C196.362 34.548 195.84 34.728 195.408 35.088C194.988 35.448 194.694 35.892 194.526 36.42H199.314C199.206 35.844 198.948 35.388 198.54 35.052C198.144 34.716 197.622 34.548 196.974 34.548ZM209.567 36.186C209.579 36.126 209.585 36.078 209.585 36.042C209.585 36.006 209.585 35.97 209.585 35.934C209.585 35.586 209.459 35.31 209.207 35.106C208.967 34.902 208.655 34.8 208.271 34.8C207.611 34.8 207.107 35.034 206.759 35.502C206.423 35.97 206.255 36.6 206.255 37.392V42H203.987V33.072H206.255V34.296C206.531 33.852 206.903 33.498 207.371 33.234C207.839 32.958 208.379 32.82 208.991 32.82C209.519 32.82 209.969 32.898 210.341 33.054C210.713 33.198 211.013 33.396 211.241 33.648C211.469 33.9 211.631 34.188 211.727 34.512C211.835 34.824 211.889 35.148 211.889 35.484C211.889 35.772 211.859 36.036 211.799 36.276C211.751 36.516 211.679 36.732 211.583 36.924L209.567 36.186ZM216.183 38.076C216.255 38.76 216.507 39.306 216.939 39.714C217.383 40.11 217.947 40.308 218.631 40.308C219.255 40.308 219.765 40.158 220.161 39.858C220.557 39.546 220.869 39.15 221.097 38.67L222.789 39.642C222.321 40.542 221.757 41.202 221.097 41.622C220.437 42.042 219.603 42.252 218.595 42.252C217.971 42.252 217.383 42.138 216.831 41.91C216.279 41.682 215.793 41.364 215.373 40.956C214.953 40.536 214.617 40.038 214.365 39.462C214.125 38.886 214.005 38.244 214.005 37.536C214.005 36.828 214.125 36.186 214.365 35.61C214.617 35.034 214.953 34.542 215.373 34.134C215.805 33.714 216.303 33.39 216.867 33.162C217.443 32.934 218.055 32.82 218.703 32.82C219.339 32.82 219.921 32.934 220.449 33.162C220.989 33.378 221.451 33.684 221.835 34.08C222.219 34.476 222.519 34.95 222.735 35.502C222.951 36.042 223.059 36.636 223.059 37.284V38.076H216.183ZM218.631 34.548C218.019 34.548 217.497 34.728 217.065 35.088C216.645 35.448 216.351 35.892 216.183 36.42H220.971C220.863 35.844 220.605 35.388 220.197 35.052C219.801 34.716 219.279 34.548 218.631 34.548ZM233.905 42H231.637V40.902C231.325 41.31 230.965 41.64 230.557 41.892C230.149 42.132 229.591 42.252 228.883 42.252C228.295 42.252 227.749 42.15 227.245 41.946C226.741 41.73 226.303 41.418 225.931 41.01C225.559 40.602 225.265 40.11 225.049 39.534C224.833 38.946 224.725 38.28 224.725 37.536C224.725 36.792 224.833 36.132 225.049 35.556C225.265 34.968 225.559 34.47 225.931 34.062C226.315 33.654 226.759 33.348 227.263 33.144C227.779 32.928 228.337 32.82 228.937 32.82C230.101 32.82 231.001 33.234 231.637 34.062V29.4H233.905V42ZM229.405 40.128C230.137 40.128 230.713 39.888 231.133 39.408C231.565 38.916 231.781 38.292 231.781 37.536C231.781 36.78 231.565 36.162 231.133 35.682C230.713 35.19 230.137 34.944 229.405 34.944C228.673 34.944 228.091 35.19 227.659 35.682C227.239 36.162 227.029 36.78 227.029 37.536C227.029 38.292 227.239 38.916 227.659 39.408C228.091 39.888 228.673 40.128 229.405 40.128ZM236.093 42.126H244.337V43.962H236.093V42.126ZM246.489 33.072H248.757V34.17C249.033 33.834 249.411 33.528 249.891 33.252C250.371 32.964 250.971 32.82 251.691 32.82C252.279 32.82 252.819 32.928 253.311 33.144C253.803 33.348 254.229 33.654 254.589 34.062C254.949 34.47 255.231 34.968 255.435 35.556C255.639 36.132 255.741 36.792 255.741 37.536C255.741 38.28 255.627 38.946 255.399 39.534C255.183 40.11 254.883 40.602 254.499 41.01C254.127 41.418 253.689 41.73 253.185 41.946C252.681 42.15 252.147 42.252 251.583 42.252C250.947 42.252 250.395 42.144 249.927 41.928C249.459 41.712 249.069 41.406 248.757 41.01V45.672H246.489V33.072ZM251.025 34.944C250.293 34.944 249.705 35.19 249.261 35.682C248.829 36.162 248.613 36.78 248.613 37.536C248.613 38.292 248.829 38.916 249.261 39.408C249.705 39.888 250.293 40.128 251.025 40.128C251.757 40.128 252.339 39.888 252.771 39.408C253.215 38.916 253.437 38.292 253.437 37.536C253.437 36.78 253.215 36.162 252.771 35.682C252.339 35.19 251.757 34.944 251.025 34.944ZM258.037 29.4H263.005V40.128H266.065V42H257.677V40.128H260.737V31.272H258.037V29.4ZM274.931 42C274.859 41.904 274.769 41.742 274.661 41.514C274.553 41.274 274.499 40.962 274.499 40.578C274.151 41.178 273.719 41.61 273.203 41.874C272.687 42.126 272.105 42.252 271.457 42.252C271.013 42.252 270.605 42.186 270.233 42.054C269.861 41.922 269.537 41.736 269.261 41.496C268.985 41.256 268.769 40.962 268.613 40.614C268.457 40.266 268.379 39.882 268.379 39.462C268.379 39.006 268.463 38.61 268.631 38.274C268.799 37.938 269.027 37.65 269.315 37.41C269.603 37.17 269.939 36.978 270.323 36.834C270.707 36.69 271.121 36.582 271.565 36.51L274.373 36.096V35.754C274.373 35.322 274.223 34.992 273.923 34.764C273.635 34.524 273.215 34.404 272.663 34.404C272.135 34.404 271.727 34.506 271.439 34.71C271.151 34.902 271.007 35.136 271.007 35.412C271.007 35.448 271.007 35.478 271.007 35.502C271.007 35.526 271.019 35.568 271.043 35.628L269.009 36.312C268.901 36.084 268.847 35.832 268.847 35.556C268.847 35.208 268.931 34.872 269.099 34.548C269.267 34.212 269.513 33.918 269.837 33.666C270.161 33.414 270.557 33.21 271.025 33.054C271.505 32.898 272.051 32.82 272.663 32.82C273.923 32.82 274.901 33.09 275.597 33.63C276.293 34.158 276.641 34.968 276.641 36.06V39.786C276.641 40.302 276.683 40.722 276.767 41.046C276.863 41.37 277.019 41.688 277.235 42H274.931ZM271.979 40.416C272.291 40.416 272.591 40.362 272.879 40.254C273.167 40.146 273.419 39.984 273.635 39.768C273.863 39.552 274.043 39.282 274.175 38.958C274.307 38.634 274.373 38.256 274.373 37.824V37.662L272.141 38.022C271.649 38.106 271.265 38.256 270.989 38.472C270.725 38.688 270.593 38.976 270.593 39.336C270.593 39.696 270.725 39.966 270.989 40.146C271.253 40.326 271.583 40.416 271.979 40.416ZM288.099 39.606C287.655 40.434 287.079 41.082 286.371 41.55C285.675 42.018 284.835 42.252 283.851 42.252C283.191 42.252 282.573 42.144 281.997 41.928C281.421 41.7 280.917 41.382 280.485 40.974C280.053 40.554 279.711 40.056 279.459 39.48C279.219 38.892 279.099 38.244 279.099 37.536C279.099 36.828 279.225 36.186 279.477 35.61C279.741 35.022 280.089 34.524 280.521 34.116C280.953 33.696 281.457 33.378 282.033 33.162C282.609 32.934 283.215 32.82 283.851 32.82C284.847 32.82 285.687 33.024 286.371 33.432C287.067 33.84 287.625 34.476 288.045 35.34L286.119 36.474C285.855 35.898 285.525 35.502 285.129 35.286C284.733 35.058 284.301 34.944 283.833 34.944C283.497 34.944 283.179 35.004 282.879 35.124C282.591 35.244 282.333 35.418 282.105 35.646C281.889 35.874 281.715 36.15 281.583 36.474C281.463 36.786 281.403 37.14 281.403 37.536C281.403 37.932 281.463 38.292 281.583 38.616C281.715 38.94 281.889 39.216 282.105 39.444C282.321 39.66 282.573 39.828 282.861 39.948C283.161 40.068 283.485 40.128 283.833 40.128C284.433 40.128 284.913 39.99 285.273 39.714C285.633 39.438 285.951 39.03 286.227 38.49L288.099 39.606ZM291.98 38.076C292.052 38.76 292.304 39.306 292.736 39.714C293.18 40.11 293.744 40.308 294.428 40.308C295.052 40.308 295.562 40.158 295.958 39.858C296.354 39.546 296.666 39.15 296.894 38.67L298.586 39.642C298.118 40.542 297.554 41.202 296.894 41.622C296.234 42.042 295.4 42.252 294.392 42.252C293.768 42.252 293.18 42.138 292.628 41.91C292.076 41.682 291.59 41.364 291.17 40.956C290.75 40.536 290.414 40.038 290.162 39.462C289.922 38.886 289.802 38.244 289.802 37.536C289.802 36.828 289.922 36.186 290.162 35.61C290.414 35.034 290.75 34.542 291.17 34.134C291.602 33.714 292.1 33.39 292.664 33.162C293.24 32.934 293.852 32.82 294.5 32.82C295.136 32.82 295.718 32.934 296.246 33.162C296.786 33.378 297.248 33.684 297.632 34.08C298.016 34.476 298.316 34.95 298.532 35.502C298.748 36.042 298.855 36.636 298.855 37.284V38.076H291.98ZM294.428 34.548C293.816 34.548 293.294 34.728 292.862 35.088C292.442 35.448 292.148 35.892 291.98 36.42H296.768C296.66 35.844 296.402 35.388 295.994 35.052C295.598 34.716 295.076 34.548 294.428 34.548Z" fill="white"/>
<rect x="144.75" y="18.75" width="169.5" height="34.5" rx="17.25" stroke="#ACBDC8" stroke-width="1.5"/>
<path d="M108 216C117.941 216 126 207.941 126 198C126 188.059 117.941 180 108 180C98.0589 180 90 188.059 90 198C90 207.941 98.0589 216 108 216Z" fill="#5B38FF"/>
<path d="M114.084 190.266C113.878 189.956 113.569 189.75 113.156 189.75H102.844C102.431 189.75 102.122 189.956 101.916 190.266C99.75 194.391 99.75 194.597 99.75 194.906C99.75 196.041 100.678 196.969 101.812 196.969V205.219C101.812 205.838 102.225 206.25 102.844 206.25H113.156C113.775 206.25 114.188 205.838 114.188 205.219V196.969C115.322 196.969 116.25 196.041 116.25 194.906C116.25 194.597 116.25 194.391 114.084 190.266ZM110.062 204.188V200.062H105.938V204.188H103.875V196.659C104.184 196.866 104.494 196.969 104.906 196.969C105.525 196.969 106.041 196.659 106.453 196.247C106.866 196.659 107.381 196.969 108 196.969C108.619 196.969 109.134 196.659 109.547 196.247C109.959 196.659 110.475 196.969 111.094 196.969C111.506 196.969 111.816 196.866 112.125 196.659V204.188H110.062Z" fill="white"/>
<path d="M217 144C226.941 144 235 135.941 235 126C235 116.059 226.941 108 217 108C207.059 108 199 116.059 199 126C199 135.941 207.059 144 217 144Z" fill="#5B38FF"/>
<path d="M223.084 118.266C222.878 117.956 222.569 117.75 222.156 117.75H211.844C211.431 117.75 211.122 117.956 210.916 118.266C208.75 122.391 208.75 122.597 208.75 122.906C208.75 124.041 209.678 124.969 210.812 124.969V133.219C210.812 133.838 211.225 134.25 211.844 134.25H222.156C222.775 134.25 223.188 133.838 223.188 133.219V124.969C224.322 124.969 225.25 124.041 225.25 122.906C225.25 122.597 225.25 122.391 223.084 118.266ZM219.062 132.188V128.062H214.938V132.188H212.875V124.659C213.184 124.866 213.494 124.969 213.906 124.969C214.525 124.969 215.041 124.659 215.453 124.247C215.866 124.659 216.381 124.969 217 124.969C217.619 124.969 218.134 124.659 218.547 124.247C218.959 124.659 219.475 124.969 220.094 124.969C220.506 124.969 220.816 124.866 221.125 124.659V132.188H219.062Z" fill="white"/>
</svg>
