<svg width="360" height="288" viewBox="0 0 360 288" fill="none" xmlns="http://www.w3.org/2000/svg">
<mask id="mask0_14_643" style="mask-type:alpha" maskUnits="userSpaceOnUse" x="1" y="0" width="288" height="288">
<rect x="1" width="288" height="288" rx="25" fill="#000257"/>
</mask>
<g mask="url(#mask0_14_643)">
<rect x="2.25" y="1.25" width="285.5" height="285.5" rx="23.75" fill="#E9F0F6" stroke="white" stroke-width="2.5"/>
<line x1="36.25" y1="288" x2="36.25" y2="3.27835e-08" stroke="white" stroke-width="1.5"/>
<line x1="72.25" y1="288" x2="72.25" y2="3.27835e-08" stroke="white" stroke-width="1.5"/>
<line x1="108.25" y1="288" x2="108.25" y2="3.27835e-08" stroke="white" stroke-width="1.5"/>
<line x1="144.25" y1="288" x2="144.25" y2="3.27835e-08" stroke="white" stroke-width="1.5"/>
<line x1="180.25" y1="288" x2="180.25" y2="3.27835e-08" stroke="white" stroke-width="1.5"/>
<line x1="216.25" y1="288" x2="216.25" y2="3.27835e-08" stroke="white" stroke-width="1.5"/>
<line x1="252.25" y1="288" x2="252.25" y2="3.27835e-08" stroke="white" stroke-width="1.5"/>
<line x1="1" y1="98.25" x2="289" y2="98.25" stroke="white" stroke-width="1.5"/>
<line x1="1" y1="35.25" x2="289" y2="35.25" stroke="white" stroke-width="1.5"/>
<line x1="1" y1="170.25" x2="289" y2="170.25" stroke="white" stroke-width="1.5"/>
<line x1="1" y1="242.25" x2="289" y2="242.25" stroke="white" stroke-width="1.5"/>
</g>
<path d="M180.25 170.25H144.25V242.25H0.75" stroke="#000257" stroke-width="1.5"/>
<circle cx="218.5" cy="152.5" r="40.25" fill="#EB0083" fill-opacity="0.2" stroke="#EB0083" stroke-width="2.5"/>
<path opacity="0.2" d="M180.5 190C191.27 190 200 181.27 200 170.5C200 159.73 191.27 151 180.5 151C169.73 151 161 159.73 161 170.5C161 181.27 169.73 190 180.5 190Z" fill="#000257"/>
<path d="M180.5 178C184.642 178 188 174.642 188 170.5C188 166.358 184.642 163 180.5 163C176.358 163 173 166.358 173 170.5C173 174.642 176.358 178 180.5 178Z" fill="#000257" stroke="white" stroke-width="2.5" stroke-miterlimit="10"/>
<rect x="37.75" y="18.75" width="321.5" height="34.5" rx="17.25" fill="#000257"/>
<path d="M59.65 42C59.578 41.904 59.488 41.742 59.38 41.514C59.272 41.274 59.218 40.962 59.218 40.578C58.87 41.178 58.438 41.61 57.922 41.874C57.406 42.126 56.824 42.252 56.176 42.252C55.732 42.252 55.324 42.186 54.952 42.054C54.58 41.922 54.256 41.736 53.98 41.496C53.704 41.256 53.488 40.962 53.332 40.614C53.176 40.266 53.098 39.882 53.098 39.462C53.098 39.006 53.182 38.61 53.35 38.274C53.518 37.938 53.746 37.65 54.034 37.41C54.322 37.17 54.658 36.978 55.042 36.834C55.426 36.69 55.84 36.582 56.284 36.51L59.092 36.096V35.754C59.092 35.322 58.942 34.992 58.642 34.764C58.354 34.524 57.934 34.404 57.382 34.404C56.854 34.404 56.446 34.506 56.158 34.71C55.87 34.902 55.726 35.136 55.726 35.412C55.726 35.448 55.726 35.478 55.726 35.502C55.726 35.526 55.738 35.568 55.762 35.628L53.728 36.312C53.62 36.084 53.566 35.832 53.566 35.556C53.566 35.208 53.65 34.872 53.818 34.548C53.986 34.212 54.232 33.918 54.556 33.666C54.88 33.414 55.276 33.21 55.744 33.054C56.224 32.898 56.77 32.82 57.382 32.82C58.642 32.82 59.62 33.09 60.316 33.63C61.012 34.158 61.36 34.968 61.36 36.06V39.786C61.36 40.302 61.402 40.722 61.486 41.046C61.582 41.37 61.738 41.688 61.954 42H59.65ZM56.698 40.416C57.01 40.416 57.31 40.362 57.598 40.254C57.886 40.146 58.138 39.984 58.354 39.768C58.582 39.552 58.762 39.282 58.894 38.958C59.026 38.634 59.092 38.256 59.092 37.824V37.662L56.86 38.022C56.368 38.106 55.984 38.256 55.708 38.472C55.444 38.688 55.312 38.976 55.312 39.336C55.312 39.696 55.444 39.966 55.708 40.146C55.972 40.326 56.302 40.416 56.698 40.416ZM70.0821 36.186C70.0941 36.126 70.1001 36.078 70.1001 36.042C70.1001 36.006 70.1001 35.97 70.1001 35.934C70.1001 35.586 69.9741 35.31 69.7221 35.106C69.4821 34.902 69.1701 34.8 68.7861 34.8C68.1261 34.8 67.6221 35.034 67.2741 35.502C66.9381 35.97 66.7701 36.6 66.7701 37.392V42H64.5021V33.072H66.7701V34.296C67.0461 33.852 67.4181 33.498 67.8861 33.234C68.3541 32.958 68.8941 32.82 69.5061 32.82C70.0341 32.82 70.4841 32.898 70.8561 33.054C71.2281 33.198 71.5281 33.396 71.7561 33.648C71.9841 33.9 72.1461 34.188 72.2421 34.512C72.3501 34.824 72.4041 35.148 72.4041 35.484C72.4041 35.772 72.3741 36.036 72.3141 36.276C72.2661 36.516 72.1941 36.732 72.0981 36.924L70.0821 36.186ZM80.9103 36.186C80.9223 36.126 80.9283 36.078 80.9283 36.042C80.9283 36.006 80.9283 35.97 80.9283 35.934C80.9283 35.586 80.8023 35.31 80.5503 35.106C80.3103 34.902 79.9983 34.8 79.6143 34.8C78.9543 34.8 78.4503 35.034 78.1023 35.502C77.7663 35.97 77.5983 36.6 77.5983 37.392V42H75.3303V33.072H77.5983V34.296C77.8743 33.852 78.2463 33.498 78.7143 33.234C79.1823 32.958 79.7223 32.82 80.3343 32.82C80.8623 32.82 81.3123 32.898 81.6843 33.054C82.0563 33.198 82.3563 33.396 82.5843 33.648C82.8123 33.9 82.9743 34.188 83.0703 34.512C83.1783 34.824 83.2323 35.148 83.2323 35.484C83.2323 35.772 83.2023 36.036 83.1423 36.276C83.0943 36.516 83.0223 36.732 82.9263 36.924L80.9103 36.186ZM86.3564 33.072H91.0364V40.128H93.8984V42H85.9064V40.128H88.7684V34.908H86.3564V33.072ZM88.6604 29.4H91.1444V31.776H88.6604V29.4ZM101.829 42H99.6325L95.6545 33.072H98.0665L100.731 39.354L103.395 33.072H105.807L101.829 42ZM109.183 38.076C109.255 38.76 109.507 39.306 109.939 39.714C110.383 40.11 110.947 40.308 111.631 40.308C112.255 40.308 112.765 40.158 113.161 39.858C113.557 39.546 113.869 39.15 114.097 38.67L115.789 39.642C115.321 40.542 114.757 41.202 114.097 41.622C113.437 42.042 112.603 42.252 111.595 42.252C110.971 42.252 110.383 42.138 109.831 41.91C109.279 41.682 108.793 41.364 108.373 40.956C107.953 40.536 107.617 40.038 107.365 39.462C107.125 38.886 107.005 38.244 107.005 37.536C107.005 36.828 107.125 36.186 107.365 35.61C107.617 35.034 107.953 34.542 108.373 34.134C108.805 33.714 109.303 33.39 109.867 33.162C110.443 32.934 111.055 32.82 111.703 32.82C112.339 32.82 112.921 32.934 113.449 33.162C113.989 33.378 114.451 33.684 114.835 34.08C115.219 34.476 115.519 34.95 115.735 35.502C115.951 36.042 116.059 36.636 116.059 37.284V38.076H109.183ZM111.631 34.548C111.019 34.548 110.497 34.728 110.065 35.088C109.645 35.448 109.351 35.892 109.183 36.42H113.971C113.863 35.844 113.605 35.388 113.197 35.052C112.801 34.716 112.279 34.548 111.631 34.548ZM126.905 42H124.637V40.902C124.325 41.31 123.965 41.64 123.557 41.892C123.149 42.132 122.591 42.252 121.883 42.252C121.295 42.252 120.749 42.15 120.245 41.946C119.741 41.73 119.303 41.418 118.931 41.01C118.559 40.602 118.265 40.11 118.049 39.534C117.833 38.946 117.725 38.28 117.725 37.536C117.725 36.792 117.833 36.132 118.049 35.556C118.265 34.968 118.559 34.47 118.931 34.062C119.315 33.654 119.759 33.348 120.263 33.144C120.779 32.928 121.337 32.82 121.937 32.82C123.101 32.82 124.001 33.234 124.637 34.062V29.4H126.905V42ZM122.405 40.128C123.137 40.128 123.713 39.888 124.133 39.408C124.565 38.916 124.781 38.292 124.781 37.536C124.781 36.78 124.565 36.162 124.133 35.682C123.713 35.19 123.137 34.944 122.405 34.944C121.673 34.944 121.091 35.19 120.659 35.682C120.239 36.162 120.029 36.78 120.029 37.536C120.029 38.292 120.239 38.916 120.659 39.408C121.091 39.888 121.673 40.128 122.405 40.128ZM129.093 42.126H137.337V43.962H129.093V42.126ZM146.275 42C146.203 41.904 146.113 41.742 146.005 41.514C145.897 41.274 145.843 40.962 145.843 40.578C145.495 41.178 145.063 41.61 144.547 41.874C144.031 42.126 143.449 42.252 142.801 42.252C142.357 42.252 141.949 42.186 141.577 42.054C141.205 41.922 140.881 41.736 140.605 41.496C140.329 41.256 140.113 40.962 139.957 40.614C139.801 40.266 139.723 39.882 139.723 39.462C139.723 39.006 139.807 38.61 139.975 38.274C140.143 37.938 140.371 37.65 140.659 37.41C140.947 37.17 141.283 36.978 141.667 36.834C142.051 36.69 142.465 36.582 142.909 36.51L145.717 36.096V35.754C145.717 35.322 145.567 34.992 145.267 34.764C144.979 34.524 144.559 34.404 144.007 34.404C143.479 34.404 143.071 34.506 142.783 34.71C142.495 34.902 142.351 35.136 142.351 35.412C142.351 35.448 142.351 35.478 142.351 35.502C142.351 35.526 142.363 35.568 142.387 35.628L140.353 36.312C140.245 36.084 140.191 35.832 140.191 35.556C140.191 35.208 140.275 34.872 140.443 34.548C140.611 34.212 140.857 33.918 141.181 33.666C141.505 33.414 141.901 33.21 142.369 33.054C142.849 32.898 143.395 32.82 144.007 32.82C145.267 32.82 146.245 33.09 146.941 33.63C147.637 34.158 147.985 34.968 147.985 36.06V39.786C147.985 40.302 148.027 40.722 148.111 41.046C148.207 41.37 148.363 41.688 148.579 42H146.275ZM143.323 40.416C143.635 40.416 143.935 40.362 144.223 40.254C144.511 40.146 144.763 39.984 144.979 39.768C145.207 39.552 145.387 39.282 145.519 38.958C145.651 38.634 145.717 38.256 145.717 37.824V37.662L143.485 38.022C142.993 38.106 142.609 38.256 142.333 38.472C142.069 38.688 141.937 38.976 141.937 39.336C141.937 39.696 142.069 39.966 142.333 40.146C142.597 40.326 142.927 40.416 143.323 40.416ZM150.641 33.072H152.765V30.66H155.033V33.072H157.931V34.908H155.033V38.634C155.033 38.97 155.069 39.246 155.141 39.462C155.213 39.666 155.309 39.828 155.429 39.948C155.561 40.056 155.705 40.134 155.861 40.182C156.017 40.218 156.185 40.236 156.365 40.236C156.617 40.236 156.851 40.188 157.067 40.092C157.283 39.984 157.493 39.834 157.697 39.642L158.561 41.316C158.189 41.652 157.787 41.892 157.355 42.036C156.923 42.18 156.467 42.252 155.987 42.252C155.519 42.252 155.087 42.18 154.691 42.036C154.295 41.892 153.953 41.676 153.665 41.388C153.389 41.1 153.167 40.74 152.999 40.308C152.843 39.864 152.765 39.354 152.765 38.778V34.908H150.641V33.072ZM161.577 42.126H169.821V43.962H161.577V42.126ZM172.297 33.072H174.421V30.66H176.689V33.072H179.587V34.908H176.689V38.634C176.689 38.97 176.725 39.246 176.797 39.462C176.869 39.666 176.965 39.828 177.085 39.948C177.217 40.056 177.361 40.134 177.517 40.182C177.673 40.218 177.841 40.236 178.021 40.236C178.273 40.236 178.507 40.188 178.723 40.092C178.939 39.984 179.149 39.834 179.353 39.642L180.217 41.316C179.845 41.652 179.443 41.892 179.011 42.036C178.579 42.18 178.123 42.252 177.643 42.252C177.175 42.252 176.743 42.18 176.347 42.036C175.951 41.892 175.609 41.676 175.321 41.388C175.045 41.1 174.823 40.74 174.655 40.308C174.499 39.864 174.421 39.354 174.421 38.778V34.908H172.297V33.072ZM189.192 36.186C189.204 36.126 189.21 36.078 189.21 36.042C189.21 36.006 189.21 35.97 189.21 35.934C189.21 35.586 189.084 35.31 188.832 35.106C188.592 34.902 188.28 34.8 187.896 34.8C187.236 34.8 186.732 35.034 186.384 35.502C186.048 35.97 185.88 36.6 185.88 37.392V42H183.612V33.072H185.88V34.296C186.156 33.852 186.528 33.498 186.996 33.234C187.464 32.958 188.004 32.82 188.616 32.82C189.144 32.82 189.594 32.898 189.966 33.054C190.338 33.198 190.638 33.396 190.866 33.648C191.094 33.9 191.256 34.188 191.352 34.512C191.46 34.824 191.514 35.148 191.514 35.484C191.514 35.772 191.484 36.036 191.424 36.276C191.376 36.516 191.304 36.732 191.208 36.924L189.192 36.186ZM194.638 33.072H199.318V40.128H202.18V42H194.188V40.128H197.05V34.908H194.638V33.072ZM196.942 29.4H199.426V31.776H196.942V29.4ZM204.458 33.072H206.726V34.17C207.002 33.834 207.38 33.528 207.86 33.252C208.34 32.964 208.94 32.82 209.66 32.82C210.248 32.82 210.788 32.928 211.28 33.144C211.772 33.348 212.198 33.654 212.558 34.062C212.918 34.47 213.2 34.968 213.404 35.556C213.608 36.132 213.71 36.792 213.71 37.536C213.71 38.28 213.596 38.946 213.368 39.534C213.152 40.11 212.852 40.602 212.468 41.01C212.096 41.418 211.658 41.73 211.154 41.946C210.65 42.15 210.116 42.252 209.552 42.252C208.916 42.252 208.364 42.144 207.896 41.928C207.428 41.712 207.038 41.406 206.726 41.01V45.672H204.458V33.072ZM208.994 34.944C208.262 34.944 207.674 35.19 207.23 35.682C206.798 36.162 206.582 36.78 206.582 37.536C206.582 38.292 206.798 38.916 207.23 39.408C207.674 39.888 208.262 40.128 208.994 40.128C209.726 40.128 210.308 39.888 210.74 39.408C211.184 38.916 211.406 38.292 211.406 37.536C211.406 36.78 211.184 36.162 210.74 35.682C210.308 35.19 209.726 34.944 208.994 34.944ZM215.718 42.126H223.962V43.962H215.718V42.126ZM235.186 42H232.918V40.902C232.606 41.31 232.246 41.64 231.838 41.892C231.43 42.132 230.872 42.252 230.164 42.252C229.576 42.252 229.03 42.15 228.526 41.946C228.022 41.73 227.584 41.418 227.212 41.01C226.84 40.602 226.546 40.11 226.33 39.534C226.114 38.946 226.006 38.28 226.006 37.536C226.006 36.792 226.114 36.132 226.33 35.556C226.546 34.968 226.84 34.47 227.212 34.062C227.596 33.654 228.04 33.348 228.544 33.144C229.06 32.928 229.618 32.82 230.218 32.82C231.382 32.82 232.282 33.234 232.918 34.062V29.4H235.186V42ZM230.686 40.128C231.418 40.128 231.994 39.888 232.414 39.408C232.846 38.916 233.062 38.292 233.062 37.536C233.062 36.78 232.846 36.162 232.414 35.682C231.994 35.19 231.418 34.944 230.686 34.944C229.954 34.944 229.372 35.19 228.94 35.682C228.52 36.162 228.31 36.78 228.31 37.536C228.31 38.292 228.52 38.916 228.94 39.408C229.372 39.888 229.954 40.128 230.686 40.128ZM239.12 38.076C239.192 38.76 239.444 39.306 239.876 39.714C240.32 40.11 240.884 40.308 241.568 40.308C242.192 40.308 242.702 40.158 243.098 39.858C243.494 39.546 243.806 39.15 244.034 38.67L245.726 39.642C245.258 40.542 244.694 41.202 244.034 41.622C243.374 42.042 242.54 42.252 241.532 42.252C240.908 42.252 240.32 42.138 239.768 41.91C239.216 41.682 238.73 41.364 238.31 40.956C237.89 40.536 237.554 40.038 237.302 39.462C237.062 38.886 236.942 38.244 236.942 37.536C236.942 36.828 237.062 36.186 237.302 35.61C237.554 35.034 237.89 34.542 238.31 34.134C238.742 33.714 239.24 33.39 239.804 33.162C240.38 32.934 240.992 32.82 241.64 32.82C242.276 32.82 242.858 32.934 243.386 33.162C243.926 33.378 244.388 33.684 244.772 34.08C245.156 34.476 245.456 34.95 245.672 35.502C245.888 36.042 245.996 36.636 245.996 37.284V38.076H239.12ZM241.568 34.548C240.956 34.548 240.434 34.728 240.002 35.088C239.582 35.448 239.288 35.892 239.12 36.42H243.908C243.8 35.844 243.542 35.388 243.134 35.052C242.738 34.716 242.216 34.548 241.568 34.548ZM250.65 35.394C250.65 35.67 250.818 35.91 251.154 36.114C251.502 36.318 252.072 36.468 252.864 36.564C255.084 36.816 256.194 37.722 256.194 39.282C256.194 39.75 256.098 40.17 255.906 40.542C255.726 40.902 255.468 41.214 255.132 41.478C254.808 41.73 254.412 41.922 253.944 42.054C253.476 42.186 252.954 42.252 252.378 42.252C251.778 42.252 251.244 42.174 250.776 42.018C250.308 41.862 249.894 41.658 249.534 41.406C249.186 41.154 248.886 40.866 248.634 40.542C248.394 40.218 248.202 39.882 248.058 39.534L249.876 38.382C249.972 38.658 250.086 38.916 250.218 39.156C250.362 39.396 250.53 39.606 250.722 39.786C250.926 39.954 251.166 40.092 251.442 40.2C251.718 40.296 252.042 40.344 252.414 40.344C252.858 40.344 253.248 40.26 253.584 40.092C253.932 39.924 254.106 39.678 254.106 39.354C254.106 39.006 253.92 38.754 253.548 38.598C253.176 38.43 252.618 38.298 251.874 38.202C250.878 38.07 250.086 37.77 249.498 37.302C248.922 36.822 248.634 36.222 248.634 35.502C248.634 35.058 248.724 34.674 248.904 34.35C249.084 34.014 249.33 33.732 249.642 33.504C249.954 33.276 250.32 33.108 250.74 33C251.172 32.88 251.634 32.82 252.126 32.82C253.146 32.82 253.962 33.012 254.574 33.396C255.186 33.78 255.666 34.362 256.014 35.142L254.394 36.042C254.19 35.574 253.896 35.196 253.512 34.908C253.128 34.62 252.66 34.476 252.108 34.476C251.724 34.476 251.382 34.554 251.082 34.71C250.794 34.854 250.65 35.082 250.65 35.394ZM258.922 33.072H261.046V30.66H263.314V33.072H266.212V34.908H263.314V38.634C263.314 38.97 263.35 39.246 263.422 39.462C263.494 39.666 263.59 39.828 263.71 39.948C263.842 40.056 263.986 40.134 264.142 40.182C264.298 40.218 264.466 40.236 264.646 40.236C264.898 40.236 265.132 40.188 265.348 40.092C265.564 39.984 265.774 39.834 265.978 39.642L266.842 41.316C266.47 41.652 266.068 41.892 265.636 42.036C265.204 42.18 264.748 42.252 264.268 42.252C263.8 42.252 263.368 42.18 262.972 42.036C262.576 41.892 262.234 41.676 261.946 41.388C261.67 41.1 261.448 40.74 261.28 40.308C261.124 39.864 261.046 39.354 261.046 38.778V34.908H258.922V33.072ZM270.435 33.072H275.115V40.128H277.977V42H269.985V40.128H272.847V34.908H270.435V33.072ZM272.739 29.4H275.223V31.776H272.739V29.4ZM289.039 42H286.771V36.852C286.771 36.24 286.639 35.772 286.375 35.448C286.111 35.112 285.673 34.944 285.061 34.944C284.461 34.944 283.975 35.178 283.603 35.646C283.243 36.102 283.063 36.708 283.063 37.464V42H280.795V33.072H283.063V34.512C283.399 33.996 283.801 33.588 284.269 33.288C284.749 32.976 285.313 32.82 285.961 32.82C286.921 32.82 287.671 33.102 288.211 33.666C288.763 34.23 289.039 34.98 289.039 35.916V42ZM297.869 42C297.797 41.904 297.707 41.742 297.599 41.514C297.491 41.274 297.437 40.962 297.437 40.578C297.089 41.178 296.657 41.61 296.141 41.874C295.625 42.126 295.043 42.252 294.395 42.252C293.951 42.252 293.543 42.186 293.171 42.054C292.799 41.922 292.475 41.736 292.199 41.496C291.923 41.256 291.707 40.962 291.551 40.614C291.395 40.266 291.317 39.882 291.317 39.462C291.317 39.006 291.401 38.61 291.569 38.274C291.737 37.938 291.965 37.65 292.253 37.41C292.541 37.17 292.877 36.978 293.261 36.834C293.645 36.69 294.059 36.582 294.503 36.51L297.311 36.096V35.754C297.311 35.322 297.161 34.992 296.861 34.764C296.573 34.524 296.153 34.404 295.601 34.404C295.073 34.404 294.665 34.506 294.377 34.71C294.089 34.902 293.945 35.136 293.945 35.412C293.945 35.448 293.945 35.478 293.945 35.502C293.945 35.526 293.957 35.568 293.981 35.628L291.947 36.312C291.839 36.084 291.785 35.832 291.785 35.556C291.785 35.208 291.869 34.872 292.037 34.548C292.205 34.212 292.451 33.918 292.775 33.666C293.099 33.414 293.495 33.21 293.963 33.054C294.443 32.898 294.989 32.82 295.601 32.82C296.861 32.82 297.839 33.09 298.535 33.63C299.231 34.158 299.579 34.968 299.579 36.06V39.786C299.579 40.302 299.621 40.722 299.705 41.046C299.801 41.37 299.957 41.688 300.173 42H297.869ZM294.917 40.416C295.229 40.416 295.529 40.362 295.817 40.254C296.105 40.146 296.357 39.984 296.573 39.768C296.801 39.552 296.981 39.282 297.113 38.958C297.245 38.634 297.311 38.256 297.311 37.824V37.662L295.079 38.022C294.587 38.106 294.203 38.256 293.927 38.472C293.663 38.688 293.531 38.976 293.531 39.336C293.531 39.696 293.663 39.966 293.927 40.146C294.191 40.326 294.521 40.416 294.917 40.416ZM302.235 33.072H304.359V30.66H306.627V33.072H309.525V34.908H306.627V38.634C306.627 38.97 306.663 39.246 306.735 39.462C306.807 39.666 306.903 39.828 307.023 39.948C307.155 40.056 307.299 40.134 307.455 40.182C307.611 40.218 307.779 40.236 307.959 40.236C308.211 40.236 308.445 40.188 308.661 40.092C308.877 39.984 309.087 39.834 309.291 39.642L310.155 41.316C309.783 41.652 309.381 41.892 308.949 42.036C308.517 42.18 308.061 42.252 307.581 42.252C307.113 42.252 306.681 42.18 306.285 42.036C305.889 41.892 305.547 41.676 305.259 41.388C304.983 41.1 304.761 40.74 304.593 40.308C304.437 39.864 304.359 39.354 304.359 38.778V34.908H302.235V33.072ZM313.747 33.072H318.427V40.128H321.289V42H313.297V40.128H316.159V34.908H313.747V33.072ZM316.051 29.4H318.535V31.776H316.051V29.4ZM332.891 37.536C332.891 38.316 332.753 39 332.477 39.588C332.213 40.176 331.859 40.668 331.415 41.064C330.983 41.46 330.479 41.76 329.903 41.964C329.327 42.156 328.733 42.252 328.121 42.252C327.509 42.252 326.915 42.156 326.339 41.964C325.763 41.76 325.253 41.46 324.809 41.064C324.377 40.668 324.023 40.176 323.747 39.588C323.483 39 323.351 38.316 323.351 37.536C323.351 36.756 323.483 36.072 323.747 35.484C324.023 34.896 324.377 34.404 324.809 34.008C325.253 33.612 325.763 33.318 326.339 33.126C326.915 32.922 327.509 32.82 328.121 32.82C328.733 32.82 329.327 32.922 329.903 33.126C330.479 33.318 330.983 33.612 331.415 34.008C331.859 34.404 332.213 34.896 332.477 35.484C332.753 36.072 332.891 36.756 332.891 37.536ZM328.121 40.128C328.469 40.128 328.793 40.074 329.093 39.966C329.393 39.858 329.651 39.696 329.867 39.48C330.095 39.264 330.269 38.994 330.389 38.67C330.521 38.346 330.587 37.968 330.587 37.536C330.587 37.104 330.521 36.726 330.389 36.402C330.269 36.078 330.095 35.808 329.867 35.592C329.651 35.376 329.393 35.214 329.093 35.106C328.793 34.998 328.469 34.944 328.121 34.944C327.773 34.944 327.449 34.998 327.149 35.106C326.849 35.214 326.585 35.376 326.357 35.592C326.141 35.808 325.967 36.078 325.835 36.402C325.715 36.726 325.655 37.104 325.655 37.536C325.655 37.968 325.715 38.346 325.835 38.67C325.967 38.994 326.141 39.264 326.357 39.48C326.585 39.696 326.849 39.858 327.149 39.966C327.449 40.074 327.773 40.128 328.121 40.128ZM343.179 42H340.911V36.852C340.911 36.24 340.779 35.772 340.515 35.448C340.251 35.112 339.813 34.944 339.201 34.944C338.601 34.944 338.115 35.178 337.743 35.646C337.383 36.102 337.203 36.708 337.203 37.464V42H334.935V33.072H337.203V34.512C337.539 33.996 337.941 33.588 338.409 33.288C338.889 32.976 339.453 32.82 340.101 32.82C341.061 32.82 341.811 33.102 342.351 33.666C342.903 34.23 343.179 34.98 343.179 35.916V42Z" fill="white"/>
<rect x="37.75" y="18.75" width="321.5" height="34.5" rx="17.25" stroke="#ACBDC8" stroke-width="1.5"/>
<path d="M218 171C227.941 171 236 162.941 236 153C236 143.059 227.941 135 218 135C208.059 135 200 143.059 200 153C200 162.941 208.059 171 218 171Z" fill="#EB0083"/>
<path d="M224.501 145.625H211.499C210.95 145.625 210.5 146.082 210.5 146.64V160.86C210.5 161.418 210.95 161.875 211.499 161.875H211.709C212.259 161.875 212.709 161.418 212.709 160.86V157.815H224.501C225.05 157.815 225.5 157.358 225.5 156.8V146.64C225.5 146.082 225.05 145.625 224.501 145.625ZM223.291 151.715H219.764V155.298H216.236V151.715H212.709V148.132H216.236V151.715H219.764V148.132H223.291V151.715Z" fill="white"/>
</svg>
