<svg width="324" height="288" viewBox="0 0 324 288" fill="none" xmlns="http://www.w3.org/2000/svg">
<mask id="mask0_14_647" style="mask-type:alpha" maskUnits="userSpaceOnUse" x="0" y="0" width="288" height="288">
<rect width="288" height="288" rx="25" fill="#000257"/>
</mask>
<g mask="url(#mask0_14_647)">
<rect x="1.25" y="1.25" width="285.5" height="285.5" rx="23.75" fill="#E9F0F6" stroke="white" stroke-width="2.5"/>
<line x1="35.25" y1="288" x2="35.25" y2="3.27835e-08" stroke="white" stroke-width="1.5"/>
<line x1="71.25" y1="288" x2="71.25" y2="3.27835e-08" stroke="white" stroke-width="1.5"/>
<line x1="107.25" y1="288" x2="107.25" y2="3.27835e-08" stroke="white" stroke-width="1.5"/>
<line x1="143.25" y1="288" x2="143.25" y2="3.27835e-08" stroke="white" stroke-width="1.5"/>
<line x1="179.25" y1="288" x2="179.25" y2="3.27835e-08" stroke="white" stroke-width="1.5"/>
<line x1="215.25" y1="288" x2="215.25" y2="3.27835e-08" stroke="white" stroke-width="1.5"/>
<line x1="251.25" y1="288" x2="251.25" y2="3.27835e-08" stroke="white" stroke-width="1.5"/>
<line y1="98.25" x2="288" y2="98.25" stroke="white" stroke-width="1.5"/>
<line y1="35.25" x2="288" y2="35.25" stroke="white" stroke-width="1.5"/>
<line y1="170.25" x2="288" y2="170.25" stroke="white" stroke-width="1.5"/>
<line y1="242.25" x2="288" y2="242.25" stroke="white" stroke-width="1.5"/>
</g>
<path opacity="0.2" d="M179.5 118C190.27 118 199 109.27 199 98.5C199 87.7304 190.27 79 179.5 79C168.73 79 160 87.7304 160 98.5C160 109.27 168.73 118 179.5 118Z" fill="#000257"/>
<path d="M179.5 106C183.642 106 187 102.642 187 98.5C187 94.3579 183.642 91 179.5 91C175.358 91 172 94.3579 172 98.5C172 102.642 175.358 106 179.5 106Z" fill="#000257" stroke="white" stroke-width="2.5" stroke-miterlimit="10"/>
<rect x="34.75" y="18.75" width="288.5" height="34.5" rx="17.25" fill="#000257"/>
<path d="M57.586 39.876C57.346 40.572 56.962 41.142 56.434 41.586C55.906 42.03 55.258 42.252 54.49 42.252C53.65 42.252 52.912 42.09 52.276 41.766C51.652 41.442 51.13 40.992 50.71 40.416C50.29 39.84 49.972 39.15 49.756 38.346C49.552 37.542 49.45 36.66 49.45 35.7C49.45 34.74 49.57 33.858 49.81 33.054C50.05 32.25 50.398 31.56 50.854 30.984C51.31 30.408 51.862 29.958 52.51 29.634C53.158 29.31 53.896 29.148 54.724 29.148C55.384 29.148 55.966 29.238 56.47 29.418C56.974 29.586 57.412 29.82 57.784 30.12C58.156 30.408 58.462 30.756 58.702 31.164C58.954 31.56 59.152 31.986 59.296 32.442L57.334 33.486C56.914 31.986 56.032 31.236 54.688 31.236C54.22 31.236 53.806 31.344 53.446 31.56C53.098 31.764 52.804 32.064 52.564 32.46C52.336 32.844 52.162 33.312 52.042 33.864C51.922 34.404 51.862 35.016 51.862 35.7C51.862 37.068 52.078 38.136 52.51 38.904C52.954 39.672 53.656 40.056 54.616 40.056C54.976 40.056 55.288 39.984 55.552 39.84C55.828 39.696 56.062 39.498 56.254 39.246C56.446 38.994 56.596 38.694 56.704 38.346C56.824 37.998 56.902 37.62 56.938 37.212H54.04V35.268H59.314V42H57.982L57.586 39.876ZM61.1241 29.4H69.2961V31.524H63.5001V34.422H68.7921V36.546H63.5001V39.876H69.3501V42H61.1241V29.4ZM71.5023 29.4H80.6463V31.596H77.2623V42H74.8863V31.596H71.5023V29.4ZM99.9985 28.86H102.303L95.4625 42.54H93.1585L99.9985 28.86ZM106.885 35.394C106.885 35.67 107.053 35.91 107.389 36.114C107.737 36.318 108.307 36.468 109.099 36.564C111.319 36.816 112.429 37.722 112.429 39.282C112.429 39.75 112.333 40.17 112.141 40.542C111.961 40.902 111.703 41.214 111.367 41.478C111.043 41.73 110.647 41.922 110.179 42.054C109.711 42.186 109.189 42.252 108.613 42.252C108.013 42.252 107.479 42.174 107.011 42.018C106.543 41.862 106.129 41.658 105.769 41.406C105.421 41.154 105.121 40.866 104.869 40.542C104.629 40.218 104.437 39.882 104.293 39.534L106.111 38.382C106.207 38.658 106.321 38.916 106.453 39.156C106.597 39.396 106.765 39.606 106.957 39.786C107.161 39.954 107.401 40.092 107.677 40.2C107.953 40.296 108.277 40.344 108.649 40.344C109.093 40.344 109.483 40.26 109.819 40.092C110.167 39.924 110.341 39.678 110.341 39.354C110.341 39.006 110.155 38.754 109.783 38.598C109.411 38.43 108.853 38.298 108.109 38.202C107.113 38.07 106.321 37.77 105.733 37.302C105.157 36.822 104.869 36.222 104.869 35.502C104.869 35.058 104.959 34.674 105.139 34.35C105.319 34.014 105.565 33.732 105.877 33.504C106.189 33.276 106.555 33.108 106.975 33C107.407 32.88 107.869 32.82 108.361 32.82C109.381 32.82 110.197 33.012 110.809 33.396C111.421 33.78 111.901 34.362 112.249 35.142L110.629 36.042C110.425 35.574 110.131 35.196 109.747 34.908C109.363 34.62 108.895 34.476 108.343 34.476C107.959 34.476 107.617 34.554 107.317 34.71C107.029 34.854 106.885 35.082 106.885 35.394ZM117.011 38.076C117.083 38.76 117.335 39.306 117.767 39.714C118.211 40.11 118.775 40.308 119.459 40.308C120.083 40.308 120.593 40.158 120.989 39.858C121.385 39.546 121.697 39.15 121.925 38.67L123.617 39.642C123.149 40.542 122.585 41.202 121.925 41.622C121.265 42.042 120.431 42.252 119.423 42.252C118.799 42.252 118.211 42.138 117.659 41.91C117.107 41.682 116.621 41.364 116.201 40.956C115.781 40.536 115.445 40.038 115.193 39.462C114.953 38.886 114.833 38.244 114.833 37.536C114.833 36.828 114.953 36.186 115.193 35.61C115.445 35.034 115.781 34.542 116.201 34.134C116.633 33.714 117.131 33.39 117.695 33.162C118.271 32.934 118.883 32.82 119.531 32.82C120.167 32.82 120.749 32.934 121.277 33.162C121.817 33.378 122.279 33.684 122.663 34.08C123.047 34.476 123.347 34.95 123.563 35.502C123.779 36.042 123.887 36.636 123.887 37.284V38.076H117.011ZM119.459 34.548C118.847 34.548 118.325 34.728 117.893 35.088C117.473 35.448 117.179 35.892 117.011 36.42H121.799C121.691 35.844 121.433 35.388 121.025 35.052C120.629 34.716 120.107 34.548 119.459 34.548ZM132.447 42C132.375 41.904 132.285 41.742 132.177 41.514C132.069 41.274 132.015 40.962 132.015 40.578C131.667 41.178 131.235 41.61 130.719 41.874C130.203 42.126 129.621 42.252 128.973 42.252C128.529 42.252 128.121 42.186 127.749 42.054C127.377 41.922 127.053 41.736 126.777 41.496C126.501 41.256 126.285 40.962 126.129 40.614C125.973 40.266 125.895 39.882 125.895 39.462C125.895 39.006 125.979 38.61 126.147 38.274C126.315 37.938 126.543 37.65 126.831 37.41C127.119 37.17 127.455 36.978 127.839 36.834C128.223 36.69 128.637 36.582 129.081 36.51L131.889 36.096V35.754C131.889 35.322 131.739 34.992 131.439 34.764C131.151 34.524 130.731 34.404 130.179 34.404C129.651 34.404 129.243 34.506 128.955 34.71C128.667 34.902 128.523 35.136 128.523 35.412C128.523 35.448 128.523 35.478 128.523 35.502C128.523 35.526 128.535 35.568 128.559 35.628L126.525 36.312C126.417 36.084 126.363 35.832 126.363 35.556C126.363 35.208 126.447 34.872 126.615 34.548C126.783 34.212 127.029 33.918 127.353 33.666C127.677 33.414 128.073 33.21 128.541 33.054C129.021 32.898 129.567 32.82 130.179 32.82C131.439 32.82 132.417 33.09 133.113 33.63C133.809 34.158 134.157 34.968 134.157 36.06V39.786C134.157 40.302 134.199 40.722 134.283 41.046C134.379 41.37 134.535 41.688 134.751 42H132.447ZM129.495 40.416C129.807 40.416 130.107 40.362 130.395 40.254C130.683 40.146 130.935 39.984 131.151 39.768C131.379 39.552 131.559 39.282 131.691 38.958C131.823 38.634 131.889 38.256 131.889 37.824V37.662L129.657 38.022C129.165 38.106 128.781 38.256 128.505 38.472C128.241 38.688 128.109 38.976 128.109 39.336C128.109 39.696 128.241 39.966 128.505 40.146C128.769 40.326 129.099 40.416 129.495 40.416ZM142.879 36.186C142.891 36.126 142.897 36.078 142.897 36.042C142.897 36.006 142.897 35.97 142.897 35.934C142.897 35.586 142.771 35.31 142.519 35.106C142.279 34.902 141.967 34.8 141.583 34.8C140.923 34.8 140.419 35.034 140.071 35.502C139.735 35.97 139.567 36.6 139.567 37.392V42H137.299V33.072H139.567V34.296C139.843 33.852 140.215 33.498 140.683 33.234C141.151 32.958 141.691 32.82 142.303 32.82C142.831 32.82 143.281 32.898 143.653 33.054C144.025 33.198 144.325 33.396 144.553 33.648C144.781 33.9 144.943 34.188 145.039 34.512C145.147 34.824 145.201 35.148 145.201 35.484C145.201 35.772 145.171 36.036 145.111 36.276C145.063 36.516 144.991 36.732 144.895 36.924L142.879 36.186ZM156.443 39.606C155.999 40.434 155.423 41.082 154.715 41.55C154.019 42.018 153.179 42.252 152.195 42.252C151.535 42.252 150.917 42.144 150.341 41.928C149.765 41.7 149.261 41.382 148.829 40.974C148.397 40.554 148.055 40.056 147.803 39.48C147.563 38.892 147.443 38.244 147.443 37.536C147.443 36.828 147.569 36.186 147.821 35.61C148.085 35.022 148.433 34.524 148.865 34.116C149.297 33.696 149.801 33.378 150.377 33.162C150.953 32.934 151.559 32.82 152.195 32.82C153.191 32.82 154.031 33.024 154.715 33.432C155.411 33.84 155.969 34.476 156.389 35.34L154.463 36.474C154.199 35.898 153.869 35.502 153.473 35.286C153.077 35.058 152.645 34.944 152.177 34.944C151.841 34.944 151.523 35.004 151.223 35.124C150.935 35.244 150.677 35.418 150.449 35.646C150.233 35.874 150.059 36.15 149.927 36.474C149.807 36.786 149.747 37.14 149.747 37.536C149.747 37.932 149.807 38.292 149.927 38.616C150.059 38.94 150.233 39.216 150.449 39.444C150.665 39.66 150.917 39.828 151.205 39.948C151.505 40.068 151.829 40.128 152.177 40.128C152.777 40.128 153.257 39.99 153.617 39.714C153.977 39.438 154.295 39.03 154.571 38.49L156.443 39.606ZM166.857 42H164.589V36.852C164.589 36.264 164.445 35.802 164.157 35.466C163.869 35.118 163.425 34.944 162.825 34.944C162.189 34.944 161.673 35.178 161.277 35.646C160.893 36.102 160.701 36.708 160.701 37.464V42H158.433V29.4H160.701V34.476C161.049 33.936 161.463 33.528 161.943 33.252C162.435 32.964 163.011 32.82 163.671 32.82C164.151 32.82 164.589 32.898 164.985 33.054C165.381 33.198 165.717 33.402 165.993 33.666C166.269 33.93 166.479 34.248 166.623 34.62C166.779 34.992 166.857 35.4 166.857 35.844V42ZM175.795 28.86H178.099L171.259 42.54H168.955L175.795 28.86ZM186.588 42C186.516 41.904 186.426 41.742 186.318 41.514C186.21 41.274 186.156 40.962 186.156 40.578C185.808 41.178 185.376 41.61 184.86 41.874C184.344 42.126 183.762 42.252 183.114 42.252C182.67 42.252 182.262 42.186 181.89 42.054C181.518 41.922 181.194 41.736 180.918 41.496C180.642 41.256 180.426 40.962 180.27 40.614C180.114 40.266 180.036 39.882 180.036 39.462C180.036 39.006 180.12 38.61 180.288 38.274C180.456 37.938 180.684 37.65 180.972 37.41C181.26 37.17 181.596 36.978 181.98 36.834C182.364 36.69 182.778 36.582 183.222 36.51L186.03 36.096V35.754C186.03 35.322 185.88 34.992 185.58 34.764C185.292 34.524 184.872 34.404 184.32 34.404C183.792 34.404 183.384 34.506 183.096 34.71C182.808 34.902 182.664 35.136 182.664 35.412C182.664 35.448 182.664 35.478 182.664 35.502C182.664 35.526 182.676 35.568 182.7 35.628L180.666 36.312C180.558 36.084 180.504 35.832 180.504 35.556C180.504 35.208 180.588 34.872 180.756 34.548C180.924 34.212 181.17 33.918 181.494 33.666C181.818 33.414 182.214 33.21 182.682 33.054C183.162 32.898 183.708 32.82 184.32 32.82C185.58 32.82 186.558 33.09 187.254 33.63C187.95 34.158 188.298 34.968 188.298 36.06V39.786C188.298 40.302 188.34 40.722 188.424 41.046C188.52 41.37 188.676 41.688 188.892 42H186.588ZM183.636 40.416C183.948 40.416 184.248 40.362 184.536 40.254C184.824 40.146 185.076 39.984 185.292 39.768C185.52 39.552 185.7 39.282 185.832 38.958C185.964 38.634 186.03 38.256 186.03 37.824V37.662L183.798 38.022C183.306 38.106 182.922 38.256 182.646 38.472C182.382 38.688 182.25 38.976 182.25 39.336C182.25 39.696 182.382 39.966 182.646 40.146C182.91 40.326 183.24 40.416 183.636 40.416ZM191.116 33.072H193.384V38.22C193.384 38.832 193.516 39.306 193.78 39.642C194.044 39.966 194.482 40.128 195.094 40.128C195.694 40.128 196.174 39.9 196.534 39.444C196.906 38.976 197.092 38.364 197.092 37.608V33.072H199.36V42H197.092V40.668C196.768 41.172 196.39 41.562 195.958 41.838C195.526 42.114 194.962 42.252 194.266 42.252C193.786 42.252 193.354 42.174 192.97 42.018C192.586 41.874 192.256 41.67 191.98 41.406C191.704 41.13 191.488 40.806 191.332 40.434C191.188 40.05 191.116 39.624 191.116 39.156V33.072ZM201.782 33.072H203.906V30.66H206.174V33.072H209.072V34.908H206.174V38.634C206.174 38.97 206.21 39.246 206.282 39.462C206.354 39.666 206.45 39.828 206.57 39.948C206.702 40.056 206.846 40.134 207.002 40.182C207.158 40.218 207.326 40.236 207.506 40.236C207.758 40.236 207.992 40.188 208.208 40.092C208.424 39.984 208.634 39.834 208.838 39.642L209.702 41.316C209.33 41.652 208.928 41.892 208.496 42.036C208.064 42.18 207.608 42.252 207.128 42.252C206.66 42.252 206.228 42.18 205.832 42.036C205.436 41.892 205.094 41.676 204.806 41.388C204.53 41.1 204.308 40.74 204.14 40.308C203.984 39.864 203.906 39.354 203.906 38.778V34.908H201.782V33.072ZM221.61 37.536C221.61 38.316 221.472 39 221.196 39.588C220.932 40.176 220.578 40.668 220.134 41.064C219.702 41.46 219.198 41.76 218.622 41.964C218.046 42.156 217.452 42.252 216.84 42.252C216.228 42.252 215.634 42.156 215.058 41.964C214.482 41.76 213.972 41.46 213.528 41.064C213.096 40.668 212.742 40.176 212.466 39.588C212.202 39 212.07 38.316 212.07 37.536C212.07 36.756 212.202 36.072 212.466 35.484C212.742 34.896 213.096 34.404 213.528 34.008C213.972 33.612 214.482 33.318 215.058 33.126C215.634 32.922 216.228 32.82 216.84 32.82C217.452 32.82 218.046 32.922 218.622 33.126C219.198 33.318 219.702 33.612 220.134 34.008C220.578 34.404 220.932 34.896 221.196 35.484C221.472 36.072 221.61 36.756 221.61 37.536ZM216.84 40.128C217.188 40.128 217.512 40.074 217.812 39.966C218.112 39.858 218.37 39.696 218.586 39.48C218.814 39.264 218.988 38.994 219.108 38.67C219.24 38.346 219.306 37.968 219.306 37.536C219.306 37.104 219.24 36.726 219.108 36.402C218.988 36.078 218.814 35.808 218.586 35.592C218.37 35.376 218.112 35.214 217.812 35.106C217.512 34.998 217.188 34.944 216.84 34.944C216.492 34.944 216.168 34.998 215.868 35.106C215.568 35.214 215.304 35.376 215.076 35.592C214.86 35.808 214.686 36.078 214.554 36.402C214.434 36.726 214.374 37.104 214.374 37.536C214.374 37.968 214.434 38.346 214.554 38.67C214.686 38.994 214.86 39.264 215.076 39.48C215.304 39.696 215.568 39.858 215.868 39.966C216.168 40.074 216.492 40.128 216.84 40.128ZM232.24 39.606C231.796 40.434 231.22 41.082 230.512 41.55C229.816 42.018 228.976 42.252 227.992 42.252C227.332 42.252 226.714 42.144 226.138 41.928C225.562 41.7 225.058 41.382 224.626 40.974C224.194 40.554 223.852 40.056 223.6 39.48C223.36 38.892 223.24 38.244 223.24 37.536C223.24 36.828 223.366 36.186 223.618 35.61C223.882 35.022 224.23 34.524 224.662 34.116C225.094 33.696 225.598 33.378 226.174 33.162C226.75 32.934 227.356 32.82 227.992 32.82C228.988 32.82 229.828 33.024 230.512 33.432C231.208 33.84 231.766 34.476 232.186 35.34L230.26 36.474C229.996 35.898 229.666 35.502 229.27 35.286C228.874 35.058 228.442 34.944 227.974 34.944C227.638 34.944 227.32 35.004 227.02 35.124C226.732 35.244 226.474 35.418 226.246 35.646C226.03 35.874 225.856 36.15 225.724 36.474C225.604 36.786 225.544 37.14 225.544 37.536C225.544 37.932 225.604 38.292 225.724 38.616C225.856 38.94 226.03 39.216 226.246 39.444C226.462 39.66 226.714 39.828 227.002 39.948C227.302 40.068 227.626 40.128 227.974 40.128C228.574 40.128 229.054 39.99 229.414 39.714C229.774 39.438 230.092 39.03 230.368 38.49L232.24 39.606ZM243.266 37.536C243.266 38.316 243.128 39 242.852 39.588C242.588 40.176 242.234 40.668 241.79 41.064C241.358 41.46 240.854 41.76 240.278 41.964C239.702 42.156 239.108 42.252 238.496 42.252C237.884 42.252 237.29 42.156 236.714 41.964C236.138 41.76 235.628 41.46 235.184 41.064C234.752 40.668 234.398 40.176 234.122 39.588C233.858 39 233.726 38.316 233.726 37.536C233.726 36.756 233.858 36.072 234.122 35.484C234.398 34.896 234.752 34.404 235.184 34.008C235.628 33.612 236.138 33.318 236.714 33.126C237.29 32.922 237.884 32.82 238.496 32.82C239.108 32.82 239.702 32.922 240.278 33.126C240.854 33.318 241.358 33.612 241.79 34.008C242.234 34.404 242.588 34.896 242.852 35.484C243.128 36.072 243.266 36.756 243.266 37.536ZM238.496 40.128C238.844 40.128 239.168 40.074 239.468 39.966C239.768 39.858 240.026 39.696 240.242 39.48C240.47 39.264 240.644 38.994 240.764 38.67C240.896 38.346 240.962 37.968 240.962 37.536C240.962 37.104 240.896 36.726 240.764 36.402C240.644 36.078 240.47 35.808 240.242 35.592C240.026 35.376 239.768 35.214 239.468 35.106C239.168 34.998 238.844 34.944 238.496 34.944C238.148 34.944 237.824 34.998 237.524 35.106C237.224 35.214 236.96 35.376 236.732 35.592C236.516 35.808 236.342 36.078 236.21 36.402C236.09 36.726 236.03 37.104 236.03 37.536C236.03 37.968 236.09 38.346 236.21 38.67C236.342 38.994 236.516 39.264 236.732 39.48C236.96 39.696 237.224 39.858 237.524 39.966C237.824 40.074 238.148 40.128 238.496 40.128ZM254.436 42H252.222V35.664C252.222 35.364 252.144 35.148 251.988 35.016C251.844 34.872 251.664 34.8 251.448 34.8C251.148 34.8 250.908 34.896 250.728 35.088C250.548 35.28 250.458 35.622 250.458 36.114V42H248.244V35.664C248.244 35.388 248.178 35.178 248.046 35.034C247.914 34.878 247.71 34.8 247.434 34.8C247.134 34.8 246.906 34.92 246.75 35.16C246.606 35.388 246.534 35.694 246.534 36.078V42H244.32V33.072H246.534V33.846C246.726 33.534 246.978 33.288 247.29 33.108C247.614 32.916 247.98 32.82 248.388 32.82C248.844 32.82 249.216 32.922 249.504 33.126C249.804 33.318 250.02 33.588 250.152 33.936C250.368 33.552 250.656 33.27 251.016 33.09C251.376 32.91 251.784 32.82 252.24 32.82C252.96 32.82 253.506 33.048 253.878 33.504C254.25 33.948 254.436 34.512 254.436 35.196V42ZM255.598 33.072H257.866V34.17C258.142 33.834 258.52 33.528 259 33.252C259.48 32.964 260.08 32.82 260.8 32.82C261.388 32.82 261.928 32.928 262.42 33.144C262.912 33.348 263.338 33.654 263.698 34.062C264.058 34.47 264.34 34.968 264.544 35.556C264.748 36.132 264.85 36.792 264.85 37.536C264.85 38.28 264.736 38.946 264.508 39.534C264.292 40.11 263.992 40.602 263.608 41.01C263.236 41.418 262.798 41.73 262.294 41.946C261.79 42.15 261.256 42.252 260.692 42.252C260.056 42.252 259.504 42.144 259.036 41.928C258.568 41.712 258.178 41.406 257.866 41.01V45.672H255.598V33.072ZM260.134 34.944C259.402 34.944 258.814 35.19 258.37 35.682C257.938 36.162 257.722 36.78 257.722 37.536C257.722 38.292 257.938 38.916 258.37 39.408C258.814 39.888 259.402 40.128 260.134 40.128C260.866 40.128 261.448 39.888 261.88 39.408C262.324 38.916 262.546 38.292 262.546 37.536C262.546 36.78 262.324 36.162 261.88 35.682C261.448 35.19 260.866 34.944 260.134 34.944ZM267.147 29.4H272.115V40.128H275.175V42H266.787V40.128H269.847V31.272H267.147V29.4ZM279.433 38.076C279.505 38.76 279.757 39.306 280.189 39.714C280.633 40.11 281.197 40.308 281.881 40.308C282.505 40.308 283.015 40.158 283.411 39.858C283.807 39.546 284.119 39.15 284.347 38.67L286.039 39.642C285.571 40.542 285.007 41.202 284.347 41.622C283.687 42.042 282.853 42.252 281.845 42.252C281.221 42.252 280.633 42.138 280.081 41.91C279.529 41.682 279.043 41.364 278.623 40.956C278.203 40.536 277.867 40.038 277.615 39.462C277.375 38.886 277.255 38.244 277.255 37.536C277.255 36.828 277.375 36.186 277.615 35.61C277.867 35.034 278.203 34.542 278.623 34.134C279.055 33.714 279.553 33.39 280.117 33.162C280.693 32.934 281.305 32.82 281.953 32.82C282.589 32.82 283.171 32.934 283.699 33.162C284.239 33.378 284.701 33.684 285.085 34.08C285.469 34.476 285.769 34.95 285.985 35.502C286.201 36.042 286.309 36.636 286.309 37.284V38.076H279.433ZM281.881 34.548C281.269 34.548 280.747 34.728 280.315 35.088C279.895 35.448 279.601 35.892 279.433 36.42H284.221C284.113 35.844 283.855 35.388 283.447 35.052C283.051 34.716 282.529 34.548 281.881 34.548ZM288.407 33.072H290.531V30.66H292.799V33.072H295.697V34.908H292.799V38.634C292.799 38.97 292.835 39.246 292.907 39.462C292.979 39.666 293.075 39.828 293.195 39.948C293.327 40.056 293.471 40.134 293.627 40.182C293.783 40.218 293.951 40.236 294.131 40.236C294.383 40.236 294.617 40.188 294.833 40.092C295.049 39.984 295.259 39.834 295.463 39.642L296.327 41.316C295.955 41.652 295.553 41.892 295.121 42.036C294.689 42.18 294.233 42.252 293.753 42.252C293.285 42.252 292.853 42.18 292.457 42.036C292.061 41.892 291.719 41.676 291.431 41.388C291.155 41.1 290.933 40.74 290.765 40.308C290.609 39.864 290.531 39.354 290.531 38.778V34.908H288.407V33.072ZM301.089 38.076C301.161 38.76 301.413 39.306 301.845 39.714C302.289 40.11 302.853 40.308 303.537 40.308C304.161 40.308 304.671 40.158 305.067 39.858C305.463 39.546 305.775 39.15 306.003 38.67L307.695 39.642C307.227 40.542 306.663 41.202 306.003 41.622C305.343 42.042 304.509 42.252 303.501 42.252C302.877 42.252 302.289 42.138 301.737 41.91C301.185 41.682 300.699 41.364 300.279 40.956C299.859 40.536 299.523 40.038 299.271 39.462C299.031 38.886 298.911 38.244 298.911 37.536C298.911 36.828 299.031 36.186 299.271 35.61C299.523 35.034 299.859 34.542 300.279 34.134C300.711 33.714 301.209 33.39 301.773 33.162C302.349 32.934 302.961 32.82 303.609 32.82C304.245 32.82 304.827 32.934 305.355 33.162C305.895 33.378 306.357 33.684 306.741 34.08C307.125 34.476 307.425 34.95 307.641 35.502C307.857 36.042 307.965 36.636 307.965 37.284V38.076H301.089ZM303.537 34.548C302.925 34.548 302.403 34.728 301.971 35.088C301.551 35.448 301.257 35.892 301.089 36.42H305.877C305.769 35.844 305.511 35.388 305.103 35.052C304.707 34.716 304.185 34.548 303.537 34.548Z" fill="white"/>
<rect x="34.75" y="18.75" width="288.5" height="34.5" rx="17.25" stroke="#ACBDC8" stroke-width="1.5"/>
<circle cx="108" cy="216" r="18" fill="#00C2D8"/>
<path d="M114.284 214.034C114.284 210.66 111.622 207.905 108.289 207.75C108.196 207.75 108.093 207.75 108 207.75C107.907 207.75 107.804 207.75 107.711 207.75C104.368 207.905 101.716 210.66 101.716 214.034C101.716 214.076 101.716 214.127 101.716 214.168C101.716 214.21 101.716 214.261 101.716 214.303C101.716 218.017 106.751 223.373 107.267 223.92C107.474 224.136 107.794 224.25 108 224.25C108.206 224.25 108.526 224.136 108.733 223.92C109.259 223.373 114.284 218.017 114.284 214.303C114.284 214.251 114.284 214.21 114.284 214.168C114.284 214.127 114.284 214.076 114.284 214.034ZM107.99 216.397C106.69 216.397 105.627 215.345 105.627 214.034C105.627 212.724 106.679 211.671 107.99 211.671C109.3 211.671 110.353 212.724 110.353 214.034C110.353 215.345 109.3 216.397 107.99 216.397Z" fill="white"/>
<circle cx="216" cy="171" r="18" fill="#00C2D8"/>
<path d="M222.284 169.034C222.284 165.66 219.622 162.905 216.289 162.75C216.196 162.75 216.093 162.75 216 162.75C215.907 162.75 215.804 162.75 215.711 162.75C212.368 162.905 209.716 165.66 209.716 169.034C209.716 169.076 209.716 169.127 209.716 169.168C209.716 169.21 209.716 169.261 209.716 169.303C209.716 173.017 214.751 178.373 215.267 178.92C215.474 179.136 215.794 179.25 216 179.25C216.206 179.25 216.526 179.136 216.733 178.92C217.259 178.373 222.284 173.017 222.284 169.303C222.284 169.251 222.284 169.21 222.284 169.168C222.284 169.127 222.284 169.076 222.284 169.034ZM215.99 171.397C214.69 171.397 213.627 170.345 213.627 169.034C213.627 167.724 214.679 166.671 215.99 166.671C217.3 166.671 218.353 167.724 218.353 169.034C218.353 170.345 217.3 171.397 215.99 171.397Z" fill="white"/>
<circle cx="72" cy="98" r="18" fill="#00C2D8"/>
<path d="M78.2843 96.0342C78.2843 92.6599 75.622 89.9048 72.289 89.75C72.1961 89.75 72.0929 89.75 72.0001 89.75C71.9072 89.75 71.804 89.75 71.7111 89.75C68.3678 89.9048 65.7158 92.6599 65.7158 96.0342C65.7158 96.0755 65.7158 96.1271 65.7158 96.1684C65.7158 96.2097 65.7158 96.2613 65.7158 96.3025C65.7158 100.017 70.7515 105.373 71.2674 105.92C71.4738 106.136 71.7937 106.25 72.0001 106.25C72.2064 106.25 72.5263 106.136 72.7327 105.92C73.259 105.373 78.2843 100.017 78.2843 96.3025C78.2843 96.2509 78.2843 96.2097 78.2843 96.1684C78.2843 96.1271 78.2843 96.0755 78.2843 96.0342ZM71.9897 98.3973C70.6896 98.3973 69.6267 97.3447 69.6267 96.0342C69.6267 94.7237 70.6792 93.6712 71.9897 93.6712C73.3002 93.6712 74.3528 94.7237 74.3528 96.0342C74.3528 97.3447 73.3002 98.3973 71.9897 98.3973Z" fill="white"/>
</svg>
