<svg width="312" height="288" viewBox="0 0 312 288" fill="none" xmlns="http://www.w3.org/2000/svg">
<mask id="mask0_14_641" style="mask-type:alpha" maskUnits="userSpaceOnUse" x="0" y="0" width="288" height="288">
<rect width="288" height="288" rx="25" fill="#000257"/>
</mask>
<g mask="url(#mask0_14_641)">
<rect x="1.25" y="1.25" width="285.5" height="285.5" rx="23.75" fill="#E9F0F6" stroke="white" stroke-width="2.5"/>
<line x1="35.25" y1="288" x2="35.25" y2="3.27835e-08" stroke="white" stroke-width="1.5"/>
<line x1="71.25" y1="288" x2="71.25" y2="3.27835e-08" stroke="white" stroke-width="1.5"/>
<line x1="107.25" y1="288" x2="107.25" y2="3.27835e-08" stroke="white" stroke-width="1.5"/>
<line x1="143.25" y1="288" x2="143.25" y2="3.27835e-08" stroke="white" stroke-width="1.5"/>
<line x1="179.25" y1="288" x2="179.25" y2="3.27835e-08" stroke="white" stroke-width="1.5"/>
<line x1="215.25" y1="288" x2="215.25" y2="3.27835e-08" stroke="white" stroke-width="1.5"/>
<line x1="251.25" y1="288" x2="251.25" y2="3.27835e-08" stroke="white" stroke-width="1.5"/>
<line y1="98.25" x2="288" y2="98.25" stroke="white" stroke-width="1.5"/>
<line y1="35.25" x2="288" y2="35.25" stroke="white" stroke-width="1.5"/>
<line y1="170.25" x2="288" y2="170.25" stroke="white" stroke-width="1.5"/>
<line y1="242.25" x2="288" y2="242.25" stroke="white" stroke-width="1.5"/>
</g>
<circle cx="198.5" cy="154.5" r="57.25" fill="#FF6F00" fill-opacity="0.2" stroke="#FF6F00" stroke-width="2.5"/>
<circle cx="90.5" cy="200.5" r="32.25" fill="#FF6F00" fill-opacity="0.2" stroke="#FF6F00" stroke-width="2.5"/>
<path opacity="0.2" d="M179.5 118C190.27 118 199 109.27 199 98.5C199 87.7304 190.27 79 179.5 79C168.73 79 160 87.7304 160 98.5C160 109.27 168.73 118 179.5 118Z" fill="#000257"/>
<path d="M179.5 106C183.642 106 187 102.642 187 98.5C187 94.3579 183.642 91 179.5 91C175.358 91 172 94.3579 172 98.5C172 102.642 175.358 106 179.5 106Z" fill="#000257" stroke="white" stroke-width="2.5" stroke-miterlimit="10"/>
<rect x="108.75" y="18.75" width="202.5" height="34.5" rx="17.25" fill="#000257"/>
<path d="M126.042 38.076C126.114 38.76 126.366 39.306 126.798 39.714C127.242 40.11 127.806 40.308 128.49 40.308C129.114 40.308 129.624 40.158 130.02 39.858C130.416 39.546 130.728 39.15 130.956 38.67L132.648 39.642C132.18 40.542 131.616 41.202 130.956 41.622C130.296 42.042 129.462 42.252 128.454 42.252C127.83 42.252 127.242 42.138 126.69 41.91C126.138 41.682 125.652 41.364 125.232 40.956C124.812 40.536 124.476 40.038 124.224 39.462C123.984 38.886 123.864 38.244 123.864 37.536C123.864 36.828 123.984 36.186 124.224 35.61C124.476 35.034 124.812 34.542 125.232 34.134C125.664 33.714 126.162 33.39 126.726 33.162C127.302 32.934 127.914 32.82 128.562 32.82C129.198 32.82 129.78 32.934 130.308 33.162C130.848 33.378 131.31 33.684 131.694 34.08C132.078 34.476 132.378 34.95 132.594 35.502C132.81 36.042 132.918 36.636 132.918 37.284V38.076H126.042ZM128.49 34.548C127.878 34.548 127.356 34.728 126.924 35.088C126.504 35.448 126.21 35.892 126.042 36.42H130.83C130.722 35.844 130.464 35.388 130.056 35.052C129.66 34.716 129.138 34.548 128.49 34.548ZM143.476 42H141.208V36.852C141.208 36.24 141.076 35.772 140.812 35.448C140.548 35.112 140.11 34.944 139.498 34.944C138.898 34.944 138.412 35.178 138.04 35.646C137.68 36.102 137.5 36.708 137.5 37.464V42H135.232V33.072H137.5V34.512C137.836 33.996 138.238 33.588 138.706 33.288C139.186 32.976 139.75 32.82 140.398 32.82C141.358 32.82 142.108 33.102 142.648 33.666C143.2 34.23 143.476 34.98 143.476 35.916V42ZM145.844 33.072H147.968V30.66H150.236V33.072H153.134V34.908H150.236V38.634C150.236 38.97 150.272 39.246 150.344 39.462C150.416 39.666 150.512 39.828 150.632 39.948C150.764 40.056 150.908 40.134 151.064 40.182C151.22 40.218 151.388 40.236 151.568 40.236C151.82 40.236 152.054 40.188 152.27 40.092C152.486 39.984 152.696 39.834 152.9 39.642L153.764 41.316C153.392 41.652 152.99 41.892 152.558 42.036C152.126 42.18 151.67 42.252 151.19 42.252C150.722 42.252 150.29 42.18 149.894 42.036C149.498 41.892 149.156 41.676 148.868 41.388C148.592 41.1 148.37 40.74 148.202 40.308C148.046 39.864 147.968 39.354 147.968 38.778V34.908H145.844V33.072ZM158.526 38.076C158.598 38.76 158.85 39.306 159.282 39.714C159.726 40.11 160.29 40.308 160.974 40.308C161.598 40.308 162.108 40.158 162.504 39.858C162.9 39.546 163.212 39.15 163.44 38.67L165.132 39.642C164.664 40.542 164.1 41.202 163.44 41.622C162.78 42.042 161.946 42.252 160.938 42.252C160.314 42.252 159.726 42.138 159.174 41.91C158.622 41.682 158.136 41.364 157.716 40.956C157.296 40.536 156.96 40.038 156.708 39.462C156.468 38.886 156.348 38.244 156.348 37.536C156.348 36.828 156.468 36.186 156.708 35.61C156.96 35.034 157.296 34.542 157.716 34.134C158.148 33.714 158.646 33.39 159.21 33.162C159.786 32.934 160.398 32.82 161.046 32.82C161.682 32.82 162.264 32.934 162.792 33.162C163.332 33.378 163.794 33.684 164.178 34.08C164.562 34.476 164.862 34.95 165.078 35.502C165.294 36.042 165.402 36.636 165.402 37.284V38.076H158.526ZM160.974 34.548C160.362 34.548 159.84 34.728 159.408 35.088C158.988 35.448 158.694 35.892 158.526 36.42H163.314C163.206 35.844 162.948 35.388 162.54 35.052C162.144 34.716 161.622 34.548 160.974 34.548ZM173.567 36.186C173.579 36.126 173.585 36.078 173.585 36.042C173.585 36.006 173.585 35.97 173.585 35.934C173.585 35.586 173.459 35.31 173.207 35.106C172.967 34.902 172.655 34.8 172.271 34.8C171.611 34.8 171.107 35.034 170.759 35.502C170.423 35.97 170.255 36.6 170.255 37.392V42H167.987V33.072H170.255V34.296C170.531 33.852 170.903 33.498 171.371 33.234C171.839 32.958 172.379 32.82 172.991 32.82C173.519 32.82 173.969 32.898 174.341 33.054C174.713 33.198 175.013 33.396 175.241 33.648C175.469 33.9 175.631 34.188 175.727 34.512C175.835 34.824 175.889 35.148 175.889 35.484C175.889 35.772 175.859 36.036 175.799 36.276C175.751 36.516 175.679 36.732 175.583 36.924L173.567 36.186ZM180.183 38.076C180.255 38.76 180.507 39.306 180.939 39.714C181.383 40.11 181.947 40.308 182.631 40.308C183.255 40.308 183.765 40.158 184.161 39.858C184.557 39.546 184.869 39.15 185.097 38.67L186.789 39.642C186.321 40.542 185.757 41.202 185.097 41.622C184.437 42.042 183.603 42.252 182.595 42.252C181.971 42.252 181.383 42.138 180.831 41.91C180.279 41.682 179.793 41.364 179.373 40.956C178.953 40.536 178.617 40.038 178.365 39.462C178.125 38.886 178.005 38.244 178.005 37.536C178.005 36.828 178.125 36.186 178.365 35.61C178.617 35.034 178.953 34.542 179.373 34.134C179.805 33.714 180.303 33.39 180.867 33.162C181.443 32.934 182.055 32.82 182.703 32.82C183.339 32.82 183.921 32.934 184.449 33.162C184.989 33.378 185.451 33.684 185.835 34.08C186.219 34.476 186.519 34.95 186.735 35.502C186.951 36.042 187.059 36.636 187.059 37.284V38.076H180.183ZM182.631 34.548C182.019 34.548 181.497 34.728 181.065 35.088C180.645 35.448 180.351 35.892 180.183 36.42H184.971C184.863 35.844 184.605 35.388 184.197 35.052C183.801 34.716 183.279 34.548 182.631 34.548ZM197.905 42H195.637V40.902C195.325 41.31 194.965 41.64 194.557 41.892C194.149 42.132 193.591 42.252 192.883 42.252C192.295 42.252 191.749 42.15 191.245 41.946C190.741 41.73 190.303 41.418 189.931 41.01C189.559 40.602 189.265 40.11 189.049 39.534C188.833 38.946 188.725 38.28 188.725 37.536C188.725 36.792 188.833 36.132 189.049 35.556C189.265 34.968 189.559 34.47 189.931 34.062C190.315 33.654 190.759 33.348 191.263 33.144C191.779 32.928 192.337 32.82 192.937 32.82C194.101 32.82 195.001 33.234 195.637 34.062V29.4H197.905V42ZM193.405 40.128C194.137 40.128 194.713 39.888 195.133 39.408C195.565 38.916 195.781 38.292 195.781 37.536C195.781 36.78 195.565 36.162 195.133 35.682C194.713 35.19 194.137 34.944 193.405 34.944C192.673 34.944 192.091 35.19 191.659 35.682C191.239 36.162 191.029 36.78 191.029 37.536C191.029 38.292 191.239 38.916 191.659 39.408C192.091 39.888 192.673 40.128 193.405 40.128ZM200.093 42.126H208.337V43.962H200.093V42.126ZM213.369 42.612C213.333 42.708 213.303 42.792 213.279 42.864C213.267 42.948 213.261 43.044 213.261 43.152C213.261 43.428 213.417 43.656 213.729 43.836C214.041 44.028 214.521 44.124 215.169 44.124C215.853 44.124 216.387 43.92 216.771 43.512C217.167 43.116 217.365 42.504 217.365 41.676V40.524C217.137 40.896 216.813 41.214 216.393 41.478C215.985 41.73 215.463 41.856 214.827 41.856C214.239 41.856 213.681 41.748 213.153 41.532C212.637 41.304 212.181 40.992 211.785 40.596C211.401 40.2 211.095 39.726 210.867 39.174C210.639 38.622 210.525 38.01 210.525 37.338C210.525 36.678 210.639 36.072 210.867 35.52C211.107 34.956 211.425 34.476 211.821 34.08C212.217 33.684 212.673 33.378 213.189 33.162C213.717 32.934 214.269 32.82 214.845 32.82C215.973 32.82 216.813 33.228 217.365 34.044V33.072H219.633V41.388C219.633 42.144 219.525 42.804 219.309 43.368C219.093 43.944 218.787 44.418 218.391 44.79C217.995 45.174 217.515 45.456 216.951 45.636C216.399 45.828 215.781 45.924 215.097 45.924C213.789 45.924 212.763 45.672 212.019 45.168C211.287 44.664 210.921 43.944 210.921 43.008C210.921 42.792 210.945 42.588 210.993 42.396C211.053 42.204 211.113 42.054 211.173 41.946L213.369 42.612ZM215.079 34.8C214.767 34.8 214.467 34.854 214.179 34.962C213.891 35.07 213.639 35.232 213.423 35.448C213.207 35.664 213.033 35.934 212.901 36.258C212.781 36.57 212.721 36.93 212.721 37.338C212.721 37.746 212.781 38.112 212.901 38.436C213.033 38.748 213.207 39.012 213.423 39.228C213.639 39.444 213.891 39.606 214.179 39.714C214.467 39.822 214.767 39.876 215.079 39.876C215.391 39.876 215.691 39.822 215.979 39.714C216.279 39.606 216.537 39.444 216.753 39.228C216.981 39.012 217.161 38.748 217.293 38.436C217.425 38.112 217.491 37.746 217.491 37.338C217.491 36.93 217.425 36.57 217.293 36.258C217.161 35.934 216.981 35.664 216.753 35.448C216.537 35.232 216.279 35.07 215.979 34.962C215.691 34.854 215.391 34.8 215.079 34.8ZM223.495 38.076C223.567 38.76 223.819 39.306 224.251 39.714C224.695 40.11 225.259 40.308 225.943 40.308C226.567 40.308 227.077 40.158 227.473 39.858C227.869 39.546 228.181 39.15 228.409 38.67L230.101 39.642C229.633 40.542 229.069 41.202 228.409 41.622C227.749 42.042 226.915 42.252 225.907 42.252C225.283 42.252 224.695 42.138 224.143 41.91C223.591 41.682 223.105 41.364 222.685 40.956C222.265 40.536 221.929 40.038 221.677 39.462C221.437 38.886 221.317 38.244 221.317 37.536C221.317 36.828 221.437 36.186 221.677 35.61C221.929 35.034 222.265 34.542 222.685 34.134C223.117 33.714 223.615 33.39 224.179 33.162C224.755 32.934 225.367 32.82 226.015 32.82C226.651 32.82 227.233 32.934 227.761 33.162C228.301 33.378 228.763 33.684 229.147 34.08C229.531 34.476 229.831 34.95 230.047 35.502C230.263 36.042 230.371 36.636 230.371 37.284V38.076H223.495ZM225.943 34.548C225.331 34.548 224.809 34.728 224.377 35.088C223.957 35.448 223.663 35.892 223.495 36.42H228.283C228.175 35.844 227.917 35.388 227.509 35.052C227.113 34.716 226.591 34.548 225.943 34.548ZM241.469 37.536C241.469 38.316 241.331 39 241.055 39.588C240.791 40.176 240.437 40.668 239.993 41.064C239.561 41.46 239.057 41.76 238.481 41.964C237.905 42.156 237.311 42.252 236.699 42.252C236.087 42.252 235.493 42.156 234.917 41.964C234.341 41.76 233.831 41.46 233.387 41.064C232.955 40.668 232.601 40.176 232.325 39.588C232.061 39 231.929 38.316 231.929 37.536C231.929 36.756 232.061 36.072 232.325 35.484C232.601 34.896 232.955 34.404 233.387 34.008C233.831 33.612 234.341 33.318 234.917 33.126C235.493 32.922 236.087 32.82 236.699 32.82C237.311 32.82 237.905 32.922 238.481 33.126C239.057 33.318 239.561 33.612 239.993 34.008C240.437 34.404 240.791 34.896 241.055 35.484C241.331 36.072 241.469 36.756 241.469 37.536ZM236.699 40.128C237.047 40.128 237.371 40.074 237.671 39.966C237.971 39.858 238.229 39.696 238.445 39.48C238.673 39.264 238.847 38.994 238.967 38.67C239.099 38.346 239.165 37.968 239.165 37.536C239.165 37.104 239.099 36.726 238.967 36.402C238.847 36.078 238.673 35.808 238.445 35.592C238.229 35.376 237.971 35.214 237.671 35.106C237.371 34.998 237.047 34.944 236.699 34.944C236.351 34.944 236.027 34.998 235.727 35.106C235.427 35.214 235.163 35.376 234.935 35.592C234.719 35.808 234.545 36.078 234.413 36.402C234.293 36.726 234.233 37.104 234.233 37.536C234.233 37.968 234.293 38.346 234.413 38.67C234.545 38.994 234.719 39.264 234.935 39.48C235.163 39.696 235.427 39.858 235.727 39.966C236.027 40.074 236.351 40.128 236.699 40.128ZM243.423 33.072H245.781V32.208C245.781 31.56 245.877 31.002 246.069 30.534C246.261 30.066 246.519 29.682 246.843 29.382C247.167 29.082 247.539 28.86 247.959 28.716C248.379 28.572 248.817 28.5 249.273 28.5C249.813 28.5 250.257 28.566 250.605 28.698C250.965 28.83 251.289 28.98 251.577 29.148L250.839 31.146C250.599 30.966 250.365 30.828 250.137 30.732C249.921 30.636 249.687 30.588 249.435 30.588C249.027 30.588 248.691 30.714 248.427 30.966C248.175 31.218 248.049 31.62 248.049 32.172V33.072H251.361V34.908H248.049V42H245.781V34.908H243.423V33.072ZM255.98 38.076C256.052 38.76 256.304 39.306 256.736 39.714C257.18 40.11 257.744 40.308 258.428 40.308C259.052 40.308 259.562 40.158 259.958 39.858C260.354 39.546 260.666 39.15 260.894 38.67L262.586 39.642C262.118 40.542 261.554 41.202 260.894 41.622C260.234 42.042 259.4 42.252 258.392 42.252C257.768 42.252 257.18 42.138 256.628 41.91C256.076 41.682 255.59 41.364 255.17 40.956C254.75 40.536 254.414 40.038 254.162 39.462C253.922 38.886 253.802 38.244 253.802 37.536C253.802 36.828 253.922 36.186 254.162 35.61C254.414 35.034 254.75 34.542 255.17 34.134C255.602 33.714 256.1 33.39 256.664 33.162C257.24 32.934 257.852 32.82 258.5 32.82C259.136 32.82 259.718 32.934 260.246 33.162C260.786 33.378 261.248 33.684 261.632 34.08C262.016 34.476 262.316 34.95 262.532 35.502C262.748 36.042 262.855 36.636 262.855 37.284V38.076H255.98ZM258.428 34.548C257.816 34.548 257.294 34.728 256.862 35.088C256.442 35.448 256.148 35.892 255.98 36.42H260.768C260.66 35.844 260.402 35.388 259.994 35.052C259.598 34.716 259.076 34.548 258.428 34.548ZM273.414 42H271.146V36.852C271.146 36.24 271.014 35.772 270.75 35.448C270.486 35.112 270.048 34.944 269.436 34.944C268.836 34.944 268.35 35.178 267.978 35.646C267.618 36.102 267.438 36.708 267.438 37.464V42H265.17V33.072H267.438V34.512C267.774 33.996 268.176 33.588 268.644 33.288C269.124 32.976 269.688 32.82 270.336 32.82C271.296 32.82 272.046 33.102 272.586 33.666C273.138 34.23 273.414 34.98 273.414 35.916V42ZM284.584 39.606C284.14 40.434 283.564 41.082 282.856 41.55C282.16 42.018 281.32 42.252 280.336 42.252C279.676 42.252 279.058 42.144 278.482 41.928C277.906 41.7 277.402 41.382 276.97 40.974C276.538 40.554 276.196 40.056 275.944 39.48C275.704 38.892 275.584 38.244 275.584 37.536C275.584 36.828 275.71 36.186 275.962 35.61C276.226 35.022 276.574 34.524 277.006 34.116C277.438 33.696 277.942 33.378 278.518 33.162C279.094 32.934 279.7 32.82 280.336 32.82C281.332 32.82 282.172 33.024 282.856 33.432C283.552 33.84 284.11 34.476 284.53 35.34L282.604 36.474C282.34 35.898 282.01 35.502 281.614 35.286C281.218 35.058 280.786 34.944 280.318 34.944C279.982 34.944 279.664 35.004 279.364 35.124C279.076 35.244 278.818 35.418 278.59 35.646C278.374 35.874 278.2 36.15 278.068 36.474C277.948 36.786 277.888 37.14 277.888 37.536C277.888 37.932 277.948 38.292 278.068 38.616C278.2 38.94 278.374 39.216 278.59 39.444C278.806 39.66 279.058 39.828 279.346 39.948C279.646 40.068 279.97 40.128 280.318 40.128C280.918 40.128 281.398 39.99 281.758 39.714C282.118 39.438 282.436 39.03 282.712 38.49L284.584 39.606ZM288.464 38.076C288.536 38.76 288.788 39.306 289.22 39.714C289.664 40.11 290.228 40.308 290.912 40.308C291.536 40.308 292.046 40.158 292.442 39.858C292.838 39.546 293.15 39.15 293.378 38.67L295.07 39.642C294.602 40.542 294.038 41.202 293.378 41.622C292.718 42.042 291.884 42.252 290.876 42.252C290.252 42.252 289.664 42.138 289.112 41.91C288.56 41.682 288.074 41.364 287.654 40.956C287.234 40.536 286.898 40.038 286.646 39.462C286.406 38.886 286.286 38.244 286.286 37.536C286.286 36.828 286.406 36.186 286.646 35.61C286.898 35.034 287.234 34.542 287.654 34.134C288.086 33.714 288.584 33.39 289.148 33.162C289.724 32.934 290.336 32.82 290.984 32.82C291.62 32.82 292.202 32.934 292.73 33.162C293.27 33.378 293.732 33.684 294.116 34.08C294.5 34.476 294.8 34.95 295.016 35.502C295.232 36.042 295.34 36.636 295.34 37.284V38.076H288.464ZM290.912 34.548C290.3 34.548 289.778 34.728 289.346 35.088C288.926 35.448 288.632 35.892 288.464 36.42H293.252C293.144 35.844 292.886 35.388 292.478 35.052C292.082 34.716 291.56 34.548 290.912 34.548Z" fill="white"/>
<rect x="108.75" y="18.75" width="202.5" height="34.5" rx="17.25" stroke="#ACBDC8" stroke-width="1.5"/>
<path d="M198 173C207.941 173 216 164.941 216 155C216 145.059 207.941 137 198 137C188.059 137 180 145.059 180 155C180 164.941 188.059 173 198 173Z" fill="#FF6F00"/>
<path fill-rule="evenodd" clip-rule="evenodd" d="M198.197 146.125C201.094 146.259 203.408 148.654 203.408 151.587V151.703V151.82C203.408 155.049 199.04 159.703 198.583 160.179C198.404 160.367 198.126 160.466 197.946 160.466C197.767 160.466 197.489 160.367 197.309 160.179C196.861 159.703 192.484 155.049 192.484 151.82V151.703V151.587C192.484 148.654 194.789 146.259 197.695 146.125H197.946H198.197ZM195.883 151.587C195.883 152.726 196.807 153.641 197.937 153.641C199.076 153.641 199.991 152.726 199.991 151.587C199.991 150.448 199.076 149.533 197.937 149.533C196.798 149.533 195.883 150.448 195.883 151.587ZM202.628 158.071C202.753 157.901 202.861 157.739 202.969 157.569L202.978 157.56C204.332 158.242 205.148 159.219 205.148 160.331C205.148 162.493 202.072 164.125 198 164.125C193.928 164.125 190.852 162.493 190.852 160.331C190.852 159.237 191.641 158.277 192.951 157.596L192.951 157.596C193.049 157.748 193.148 157.901 193.265 158.062C193.516 158.421 193.767 158.753 194.018 159.076C193.139 159.47 192.637 159.946 192.637 160.331C192.637 161.129 194.771 162.331 197.991 162.331C201.211 162.331 203.345 161.129 203.345 160.331C203.345 159.937 202.816 159.443 201.901 159.049C201.93 159.011 201.96 158.973 201.989 158.934C202.197 158.663 202.416 158.378 202.628 158.071Z" fill="white"/>
<path d="M90 219C99.9411 219 108 210.941 108 201C108 191.059 99.9411 183 90 183C80.0589 183 72 191.059 72 201C72 210.941 80.0589 219 90 219Z" fill="#FF6F00"/>
<path fill-rule="evenodd" clip-rule="evenodd" d="M90.1974 192.125C93.0943 192.259 95.4082 194.654 95.4082 197.587V197.703V197.82C95.4082 201.049 91.0404 205.703 90.583 206.179C90.4037 206.367 90.1256 206.466 89.9463 206.466C89.7669 206.466 89.4889 206.367 89.3095 206.179C88.8611 205.703 84.4844 201.049 84.4844 197.82V197.703V197.587C84.4844 194.654 86.7893 192.259 89.6951 192.125H89.9463H90.1974ZM87.8835 197.587C87.8835 198.726 88.8072 199.641 89.9373 199.641C91.0763 199.641 91.9911 198.726 91.9911 197.587C91.9911 196.448 91.0763 195.533 89.9373 195.533C88.7983 195.533 87.8835 196.448 87.8835 197.587ZM94.6279 204.071C94.7535 203.901 94.8611 203.739 94.9687 203.569L94.9777 203.56C96.3319 204.242 97.1481 205.219 97.1481 206.331C97.1481 208.493 94.0718 210.125 90.0001 210.125C85.9283 210.125 82.8521 208.493 82.8521 206.331C82.8521 205.237 83.6413 204.277 84.9507 203.596L84.9507 203.596C85.0494 203.748 85.148 203.901 85.2646 204.062C85.5157 204.421 85.7669 204.753 86.018 205.076C85.1391 205.47 84.6368 205.946 84.6368 206.331C84.6368 207.129 86.7714 208.331 89.9911 208.331C93.2109 208.331 95.3454 207.129 95.3454 206.331C95.3454 205.937 94.8162 205.443 93.9014 205.049C93.9304 205.011 93.9596 204.973 93.989 204.934C94.1968 204.663 94.4158 204.378 94.6279 204.071Z" fill="white"/>
</svg>
