<svg width="326" height="288" viewBox="0 0 326 288" fill="none" xmlns="http://www.w3.org/2000/svg">
<mask id="mask0_14_645" style="mask-type:alpha" maskUnits="userSpaceOnUse" x="0" y="0" width="288" height="288">
<rect width="288" height="288" rx="25" fill="#000257"/>
</mask>
<g mask="url(#mask0_14_645)">
<rect x="1.25" y="1.25" width="285.5" height="285.5" rx="23.75" fill="#E9F0F6" stroke="white" stroke-width="2.5"/>
<line x1="35.25" y1="288" x2="35.25" y2="3.27835e-08" stroke="white" stroke-width="1.5"/>
<line x1="17.25" y1="288" x2="17.25" y2="3.27835e-08" stroke="white" stroke-width="1.5"/>
<line x1="53.25" y1="288" x2="53.25" y2="3.27835e-08" stroke="white" stroke-width="1.5"/>
<line x1="89.25" y1="288" x2="89.25" y2="3.27835e-08" stroke="white" stroke-width="1.5"/>
<line x1="125.25" y1="288" x2="125.25" y2="3.27835e-08" stroke="white" stroke-width="1.5"/>
<line x1="161.25" y1="288" x2="161.25" y2="3.27835e-08" stroke="white" stroke-width="1.5"/>
<line x1="197.25" y1="288" x2="197.25" y2="3.27835e-08" stroke="white" stroke-width="1.5"/>
<line x1="233.25" y1="288" x2="233.25" y2="3.27835e-08" stroke="white" stroke-width="1.5"/>
<line x1="269.25" y1="288" x2="269.25" y2="3.27835e-08" stroke="white" stroke-width="1.5"/>
<line x1="71.25" y1="288" x2="71.25" y2="3.27835e-08" stroke="white" stroke-width="1.5"/>
<line x1="107.25" y1="288" x2="107.25" y2="3.27835e-08" stroke="white" stroke-width="1.5"/>
<line x1="143.25" y1="288" x2="143.25" y2="3.27835e-08" stroke="white" stroke-width="1.5"/>
<line x1="179.25" y1="288" x2="179.25" y2="3.27835e-08" stroke="white" stroke-width="1.5"/>
<line x1="215.25" y1="288" x2="215.25" y2="3.27835e-08" stroke="white" stroke-width="1.5"/>
<line x1="251.25" y1="288" x2="251.25" y2="3.27835e-08" stroke="white" stroke-width="1.5"/>
<line y1="89.25" x2="288" y2="89.25" stroke="white" stroke-width="1.5"/>
<line y1="53.25" x2="288" y2="53.25" stroke="white" stroke-width="1.5"/>
<line y1="17.25" x2="288" y2="17.25" stroke="white" stroke-width="1.5"/>
<line y1="125.25" x2="288" y2="125.25" stroke="white" stroke-width="1.5"/>
<line y1="161.25" x2="288" y2="161.25" stroke="white" stroke-width="1.5"/>
<line y1="197.25" x2="288" y2="197.25" stroke="white" stroke-width="1.5"/>
<line y1="233.25" x2="288" y2="233.25" stroke="white" stroke-width="1.5"/>
<line y1="269.25" x2="288" y2="269.25" stroke="white" stroke-width="1.5"/>
</g>
<path d="M35.5 161V233.5H251.5V89.5H107.5L35.5 161Z" fill="#FB4200" fill-opacity="0.2" stroke="#FB4200" stroke-width="2.5"/>
<path opacity="0.2" d="M107.5 181C118.27 181 127 172.27 127 161.5C127 150.73 118.27 142 107.5 142C96.7304 142 88 150.73 88 161.5C88 172.27 96.7304 181 107.5 181Z" fill="#000257"/>
<path d="M107.5 169C111.642 169 115 165.642 115 161.5C115 157.358 111.642 154 107.5 154C103.358 154 99.9999 157.358 99.9999 161.5C99.9999 165.642 103.358 169 107.5 169Z" fill="#000257" stroke="white" stroke-width="2.5" stroke-miterlimit="10"/>
<rect x="166.75" y="18.75" width="158.5" height="34.5" rx="17.25" fill="#000257"/>
<rect x="166.75" y="18.75" width="158.5" height="34.5" rx="17.25" stroke="#ACBDC8" stroke-width="1.5"/>
<path d="M182.314 33.072H184.672V32.208C184.672 31.56 184.768 31.002 184.96 30.534C185.152 30.066 185.41 29.682 185.734 29.382C186.058 29.082 186.43 28.86 186.85 28.716C187.27 28.572 187.708 28.5 188.164 28.5C188.704 28.5 189.148 28.566 189.496 28.698C189.856 28.83 190.18 28.98 190.468 29.148L189.73 31.146C189.49 30.966 189.256 30.828 189.028 30.732C188.812 30.636 188.578 30.588 188.326 30.588C187.918 30.588 187.582 30.714 187.318 30.966C187.066 31.218 186.94 31.62 186.94 32.172V33.072H190.252V34.908H186.94V42H184.672V34.908H182.314V33.072ZM199.478 42C199.406 41.904 199.316 41.742 199.208 41.514C199.1 41.274 199.046 40.962 199.046 40.578C198.698 41.178 198.266 41.61 197.75 41.874C197.234 42.126 196.652 42.252 196.004 42.252C195.56 42.252 195.152 42.186 194.78 42.054C194.408 41.922 194.084 41.736 193.808 41.496C193.532 41.256 193.316 40.962 193.16 40.614C193.004 40.266 192.926 39.882 192.926 39.462C192.926 39.006 193.01 38.61 193.178 38.274C193.346 37.938 193.574 37.65 193.862 37.41C194.15 37.17 194.486 36.978 194.87 36.834C195.254 36.69 195.668 36.582 196.112 36.51L198.92 36.096V35.754C198.92 35.322 198.77 34.992 198.47 34.764C198.182 34.524 197.762 34.404 197.21 34.404C196.682 34.404 196.274 34.506 195.986 34.71C195.698 34.902 195.554 35.136 195.554 35.412C195.554 35.448 195.554 35.478 195.554 35.502C195.554 35.526 195.566 35.568 195.59 35.628L193.556 36.312C193.448 36.084 193.394 35.832 193.394 35.556C193.394 35.208 193.478 34.872 193.646 34.548C193.814 34.212 194.06 33.918 194.384 33.666C194.708 33.414 195.104 33.21 195.572 33.054C196.052 32.898 196.598 32.82 197.21 32.82C198.47 32.82 199.448 33.09 200.144 33.63C200.84 34.158 201.188 34.968 201.188 36.06V39.786C201.188 40.302 201.23 40.722 201.314 41.046C201.41 41.37 201.566 41.688 201.782 42H199.478ZM196.526 40.416C196.838 40.416 197.138 40.362 197.426 40.254C197.714 40.146 197.966 39.984 198.182 39.768C198.41 39.552 198.59 39.282 198.722 38.958C198.854 38.634 198.92 38.256 198.92 37.824V37.662L196.688 38.022C196.196 38.106 195.812 38.256 195.536 38.472C195.272 38.688 195.14 38.976 195.14 39.336C195.14 39.696 195.272 39.966 195.536 40.146C195.8 40.326 196.13 40.416 196.526 40.416ZM204.528 33.072H209.208V40.128H212.07V42H204.078V40.128H206.94V34.908H204.528V33.072ZM206.832 29.4H209.316V31.776H206.832V29.4ZM215.068 29.4H220.036V40.128H223.096V42H214.708V40.128H217.768V31.272H215.068V29.4ZM227.355 38.076C227.427 38.76 227.679 39.306 228.111 39.714C228.555 40.11 229.119 40.308 229.803 40.308C230.427 40.308 230.937 40.158 231.333 39.858C231.729 39.546 232.041 39.15 232.269 38.67L233.961 39.642C233.493 40.542 232.929 41.202 232.269 41.622C231.609 42.042 230.775 42.252 229.767 42.252C229.143 42.252 228.555 42.138 228.003 41.91C227.451 41.682 226.965 41.364 226.545 40.956C226.125 40.536 225.789 40.038 225.537 39.462C225.297 38.886 225.177 38.244 225.177 37.536C225.177 36.828 225.297 36.186 225.537 35.61C225.789 35.034 226.125 34.542 226.545 34.134C226.977 33.714 227.475 33.39 228.039 33.162C228.615 32.934 229.227 32.82 229.875 32.82C230.511 32.82 231.093 32.934 231.621 33.162C232.161 33.378 232.623 33.684 233.007 34.08C233.391 34.476 233.691 34.95 233.907 35.502C234.123 36.042 234.23 36.636 234.23 37.284V38.076H227.355ZM229.803 34.548C229.191 34.548 228.669 34.728 228.237 35.088C227.817 35.448 227.523 35.892 227.355 36.42H232.143C232.035 35.844 231.777 35.388 231.369 35.052C230.973 34.716 230.451 34.548 229.803 34.548ZM245.077 42H242.809V40.902C242.497 41.31 242.137 41.64 241.729 41.892C241.321 42.132 240.763 42.252 240.055 42.252C239.467 42.252 238.921 42.15 238.417 41.946C237.913 41.73 237.475 41.418 237.103 41.01C236.731 40.602 236.437 40.11 236.221 39.534C236.005 38.946 235.897 38.28 235.897 37.536C235.897 36.792 236.005 36.132 236.221 35.556C236.437 34.968 236.731 34.47 237.103 34.062C237.487 33.654 237.931 33.348 238.435 33.144C238.951 32.928 239.509 32.82 240.109 32.82C241.273 32.82 242.173 33.234 242.809 34.062V29.4H245.077V42ZM240.577 40.128C241.309 40.128 241.885 39.888 242.305 39.408C242.737 38.916 242.953 38.292 242.953 37.536C242.953 36.78 242.737 36.162 242.305 35.682C241.885 35.19 241.309 34.944 240.577 34.944C239.845 34.944 239.263 35.19 238.831 35.682C238.411 36.162 238.201 36.78 238.201 37.536C238.201 38.292 238.411 38.916 238.831 39.408C239.263 39.888 239.845 40.128 240.577 40.128ZM247.265 42.126H255.509V43.962H247.265V42.126ZM258.111 33.072H260.469V32.208C260.469 31.56 260.565 31.002 260.757 30.534C260.949 30.066 261.207 29.682 261.531 29.382C261.855 29.082 262.227 28.86 262.647 28.716C263.067 28.572 263.505 28.5 263.961 28.5C264.501 28.5 264.945 28.566 265.293 28.698C265.653 28.83 265.977 28.98 266.265 29.148L265.527 31.146C265.287 30.966 265.053 30.828 264.825 30.732C264.609 30.636 264.375 30.588 264.123 30.588C263.715 30.588 263.379 30.714 263.115 30.966C262.863 31.218 262.737 31.62 262.737 32.172V33.072H266.049V34.908H262.737V42H260.469V34.908H258.111V33.072ZM274.879 36.186C274.891 36.126 274.897 36.078 274.897 36.042C274.897 36.006 274.897 35.97 274.897 35.934C274.897 35.586 274.771 35.31 274.519 35.106C274.279 34.902 273.967 34.8 273.583 34.8C272.923 34.8 272.419 35.034 272.071 35.502C271.735 35.97 271.567 36.6 271.567 37.392V42H269.299V33.072H271.567V34.296C271.843 33.852 272.215 33.498 272.683 33.234C273.151 32.958 273.691 32.82 274.303 32.82C274.831 32.82 275.281 32.898 275.653 33.054C276.025 33.198 276.325 33.396 276.553 33.648C276.781 33.9 276.943 34.188 277.039 34.512C277.147 34.824 277.201 35.148 277.201 35.484C277.201 35.772 277.171 36.036 277.111 36.276C277.063 36.516 276.991 36.732 276.895 36.924L274.879 36.186ZM286.103 42C286.031 41.904 285.941 41.742 285.833 41.514C285.725 41.274 285.671 40.962 285.671 40.578C285.323 41.178 284.891 41.61 284.375 41.874C283.859 42.126 283.277 42.252 282.629 42.252C282.185 42.252 281.777 42.186 281.405 42.054C281.033 41.922 280.709 41.736 280.433 41.496C280.157 41.256 279.941 40.962 279.785 40.614C279.629 40.266 279.551 39.882 279.551 39.462C279.551 39.006 279.635 38.61 279.803 38.274C279.971 37.938 280.199 37.65 280.487 37.41C280.775 37.17 281.111 36.978 281.495 36.834C281.879 36.69 282.293 36.582 282.737 36.51L285.545 36.096V35.754C285.545 35.322 285.395 34.992 285.095 34.764C284.807 34.524 284.387 34.404 283.835 34.404C283.307 34.404 282.899 34.506 282.611 34.71C282.323 34.902 282.179 35.136 282.179 35.412C282.179 35.448 282.179 35.478 282.179 35.502C282.179 35.526 282.191 35.568 282.215 35.628L280.181 36.312C280.073 36.084 280.019 35.832 280.019 35.556C280.019 35.208 280.103 34.872 280.271 34.548C280.439 34.212 280.685 33.918 281.009 33.666C281.333 33.414 281.729 33.21 282.197 33.054C282.677 32.898 283.223 32.82 283.835 32.82C285.095 32.82 286.073 33.09 286.769 33.63C287.465 34.158 287.813 34.968 287.813 36.06V39.786C287.813 40.302 287.855 40.722 287.939 41.046C288.035 41.37 288.191 41.688 288.407 42H286.103ZM283.151 40.416C283.463 40.416 283.763 40.362 284.051 40.254C284.339 40.146 284.591 39.984 284.807 39.768C285.035 39.552 285.215 39.282 285.347 38.958C285.479 38.634 285.545 38.256 285.545 37.824V37.662L283.313 38.022C282.821 38.106 282.437 38.256 282.161 38.472C281.897 38.688 281.765 38.976 281.765 39.336C281.765 39.696 281.897 39.966 282.161 40.146C282.425 40.326 282.755 40.416 283.151 40.416ZM290.631 33.072H292.899V38.22C292.899 38.832 293.031 39.306 293.295 39.642C293.559 39.966 293.997 40.128 294.609 40.128C295.209 40.128 295.689 39.9 296.049 39.444C296.421 38.976 296.607 38.364 296.607 37.608V33.072H298.875V42H296.607V40.668C296.283 41.172 295.905 41.562 295.473 41.838C295.041 42.114 294.477 42.252 293.781 42.252C293.301 42.252 292.869 42.174 292.485 42.018C292.101 41.874 291.771 41.67 291.495 41.406C291.219 41.13 291.003 40.806 290.847 40.434C290.703 40.05 290.631 39.624 290.631 39.156V33.072ZM310.045 42H307.777V40.902C307.465 41.31 307.105 41.64 306.697 41.892C306.289 42.132 305.731 42.252 305.023 42.252C304.435 42.252 303.889 42.15 303.385 41.946C302.881 41.73 302.443 41.418 302.071 41.01C301.699 40.602 301.405 40.11 301.189 39.534C300.973 38.946 300.865 38.28 300.865 37.536C300.865 36.792 300.973 36.132 301.189 35.556C301.405 34.968 301.699 34.47 302.071 34.062C302.455 33.654 302.899 33.348 303.403 33.144C303.919 32.928 304.477 32.82 305.077 32.82C306.241 32.82 307.141 33.234 307.777 34.062V29.4H310.045V42ZM305.545 40.128C306.277 40.128 306.853 39.888 307.273 39.408C307.705 38.916 307.921 38.292 307.921 37.536C307.921 36.78 307.705 36.162 307.273 35.682C306.853 35.19 306.277 34.944 305.545 34.944C304.813 34.944 304.231 35.19 303.799 35.682C303.379 36.162 303.169 36.78 303.169 37.536C303.169 38.292 303.379 38.916 303.799 39.408C304.231 39.888 304.813 40.128 305.545 40.128Z" fill="white"/>
</svg>
